<svg version="1.1" id="aee07f99-5223-45c5-8204-b56b0229636c" xmlns="http://www.w3.org/2000/svg" x="0" y="0" viewBox="0 0 705.6 714.2" style="enable-background:new 0 0 705.6 714.2" xml:space="preserve"><style>.st0{fill:#e6e6e6}.st1{fill:#62cc9a}.st2{opacity:.2;enable-background:new}.st3{fill:#fff}.st4{fill:#575a89}.st5{fill:#ffb9b9}.st6{fill:#2f2e41}</style><ellipse class="st0" cx="153.8" cy="699.2" rx="92.3" ry="15"/><path class="st0" d="M705.6 632.3 334 554.9v-361L705.6 0z"/><path class="st1" d="M704.7 37.9 333.1 215.8v-21L704.7 1.2z"/><path class="st0" d="M350.3 197.6c0 4.8-1.6 9.5-3.6 10.5-2 .9-3.6-2.1-3.6-6.9s1.6-9.4 3.6-10.4c1.9-1.1 3.6 1.9 3.6 6.8zM364.7 190.3c0 4.7-1.6 9.3-3.6 10.2-2 .9-3.6-2-3.6-6.7s1.6-9.2 3.6-10.2c2-.9 3.6 2.1 3.6 6.7zM379.1 183.1c0 4.7-1.6 9.3-3.6 10.2-2 .9-3.6-2-3.6-6.7s1.6-9.2 3.6-10.2c2-.9 3.6 2.1 3.6 6.7z"/><path class="st2" d="m609.1 281.5-229 52.4V267l229-81z"/><path class="st3" d="m604.6 276.9-229.1 52.4v-66.8l229.1-81z"/><path class="st2" d="M417.9 287.9c0 10.8-4.1 20.5-9 21.8-4.9 1.2-8.7-6.2-8.7-16.7s3.9-20.2 8.7-21.7c4.9-1.6 9 5.8 9 16.6z"/><path class="st1" d="M415.2 285.1c0 10.8-4.1 20.5-9 21.8-4.9 1.2-8.7-6.2-8.7-16.7s3.9-20.2 8.7-21.7c4.9-1.6 9 5.9 9 16.6z"/><path class="st0" d="m549.6 246.9-110.1 31.8v-11.2l110.1-33.9zM524.3 279.1l-64.9 16.4v-11.6l64.9-17.6z"/><path class="st2" d="m609.2 520.5-229.1-19.2V367.1l229.1-38.2z"/><path class="st3" d="m603.7 515.9-229.1-19.2V362.6l229.1-38.2z"/><path class="st2" d="m412.5 400.5-10.7 1v-11.7l10.7-1.3z"/><path class="st1" d="m410.7 398.7-10.7 1V388l10.7-1.3z"/><path class="st0" d="m549.6 385.5-128.1 11.9v-10.9l128.1-14.4zM549.6 428.9l-128.1 4.2v-10.9l128.1-6.6zM549.6 473.5l-128.1-3.9v-10.9l128.1 1.5z"/><path class="st4" d="M143.4 329.2h-24.5v-12h20.5l4.5 2.5z"/><path class="st5" d="m100.8 659.9 1 18 15.1-3-2.6-18zM171.9 650.4s.5 15-1 19 4 6 4 6h12l7 1v-7.5s-8-12.5-8-19.5-14 1-14 1z"/><path class="st6" d="M103.3 674.9s10-4.7 13.5-1.9 16.5 27.4 11.5 28.9c0 0-3.5 6-15.5 2s-12-8.5-12-8.5-3.5-3-3.5-4 1.5-10 1.5-10 1.1-7.5 2.8-7l1.7.5zM172.9 667.4s-1.5-1.5-2.5 0-6.5 20.5-1.5 21.5 12.5 4.5 13.5 3.5c.8-1.1 1.5-2.2 2-3.5 0 0 8 3.5 10.5 6.5s32.5 9.5 31.5 0-16-17.5-16-17.5l-16.5-11s-6.5.5-8 3.5-12 2.5-13-3z"/><path class="st4" d="M26.3 473.8s-5.5 7-4.5 7.5 23 5.5 35 2.5 37-2.5 38.5-6 20-47 20-47l-6-33-6.5-8.5-15-13-30 56-31.5 41.5z"/><path d="M26.3 473.8s-5.5 7-4.5 7.5 23 5.5 35 2.5 37-2.5 38.5-6 20-47 20-47l-6-33-6.5-8.5-15-13-30 56-31.5 41.5z" style="opacity:.1;enable-background:new"/><path class="st6" d="M89.8 461.8s-7 25 0 59.5.5 42 2 43.5 2 1 2 2.5 1.5 8.5 0 11-1.5 82 3 84 17.5 7 20 0 .5-57.5 1.5-60 1-8.5 1-10 3-18.5 3.5-23 2-13.5 2-13.5-1-35.5 2-46 4-11.5 4-11.5l24 62.5s-2 6.5 0 8.5-.5 1.5 1.5 5 4 4.5 4 6.5-2 2-1 3.5 2.5 7 2.5 7l-2.5 6s1.5 12.5 3.5 20 2 38 4.5 38.5 22 6 22-5.5-1.5-61.5-1.5-61.5-3-7.5-3-9.5-.5-3 .5-4 2-3 .5-4.5-1-3.5-1-5.5c-.1-2.7-.4-5.4-1-8-.5-2-10-64.5-10-64.5s2-7.5 0-8-2-4.5-2-6.5 5-27-1-27-81 10.5-81 10.5z"/><path class="st5" d="m23.8 431.8-7 3.5s-25 13.5-14 21 22-10.5 22-10.5l10.5-8-11.5-6zM121.4 294.7s-2 23-12.5 28-3.5 42.5-3.5 42.5l14.5 14 25.5-7.5 3-17 2.5-17.5-6-9s-7.5-2-4.5-22-19-11.5-19-11.5z"/><path class="st1" d="M106.3 330.7s11.5 38 19.5 38 12.5-9 13.5-20 7.5-23 7.5-23l15.5 14s12.5 110.6 11.5 113.6-40 6.5-55.5 11-31 1-31-1.5c0-2.2 7.9-21.5 1.9-35.6-2.2-5-3.7-10.3-4.4-15.8-.9-7.4-1.8-16.4-1-19.2 1.5-5 9.5-58 9.5-58l13-3.5z"/><path class="st4" d="M114.8 316.9s-9 4.8-13 6.8-28.5 8-29 11 3.5 45 1.5 49.5-22 44.5-22 44.5l-1 8.5s-33 39.5-29 44 19-14 19-14 33.5-53.5 34.5-55.5 21.5-39 24.5-40 10-43 11-45 5-10.5 3.5-9.8z"/><path class="st4" d="M75.3 334.3h-3s-11 42-14 47.5-3.5 14.5-4 16-2.5 1-3 4.5-5.5 8-9.5 10-22 19-21.5 19.5 6 18 9.5 18 17.5-17 19-17 8-6 9-6.5 26.5-47.5 25.5-59-8-33-8-33z"/><path class="st5" d="m200.1 463.8 6.2 4.8s21.8 18.2 9.5 23.4-19.5-14.7-19.5-14.7l-8.7-9.9 12.5-3.6z"/><path class="st4" d="M139.8 317.5s6.6 3.2 9.6 5.7 26 9 26 11-2.5 33-2.5 33l3.5 55s5 62 6 63.5 2.5 9.5 0 9.5-15-14-14.5-21 4-23 .5-27-20-71-20-75-7-44-6.5-45-2.1-9.7-2.1-9.7z"/><path class="st4" d="m167.9 333.8 7.5.5 18.5 75.5s1.5 9.5 2 10.5 8 44.5 5 46-13 7-13.5 3.5-5.5-23-10.5-27.5-10-82-10-82l1-26.5z"/><circle class="st5" cx="137.9" cy="287.7" r="20.5"/><path class="st6" d="M123.5 289.2c1.3-.7 3 0 4.2 1.4 2.3-10.8 12.9-17.8 23.7-15.5 1.9.4 3.7 1.1 5.4 2V275c0-9.6-7.8-17.3-17.3-17.3h-4.2c-18 0-32.5 14.6-32.5 32.5v5.8c0 11 6.2 21 16 26l18.7-9.9c-5.5-3.1-9.2-8.6-10-14.9-1.6.7-3.7-.4-4.8-2.6-1.1-2.1-.7-4.6.8-5.4z"/></svg>