<svg width="565" height="565" viewBox="0 0 565 565" fill="none" xmlns="http://www.w3.org/2000/svg">
<circle cx="282.5" cy="282.5" r="277.5" stroke="#F60622" stroke-width="10"/>
<path d="M103 354C116.5 399.5 110.281 383.517 146.382 419.618C182.483 455.719 231.447 476 282.501 476C333.555 476 382.518 455.719 418.619 419.618C454.72 383.517 461 368 461 354L282.501 354L103 354Z" fill="#01A583"/>
<path d="M461 210C447.5 164.5 453.719 180.483 417.618 144.382C381.517 108.281 332.553 88 281.499 88C230.445 88 181.482 108.281 145.381 144.382C109.281 180.483 103 196 103 210L281.499 210L461 210Z" fill="#04BCFA"/>
<circle cx="282.5" cy="282.5" r="197.5" stroke="#096E43" stroke-width="10"/>
<path fill-rule="evenodd" clip-rule="evenodd" d="M280.975 50.069V67.139H283.499H286.023L285.749 50.389C285.479 33.875 285.443 33.635 283.225 33.319L280.975 33V50.069ZM298.607 34.655C297.579 37.334 298.619 37.942 305.499 38.679C309.076 39.062 312.263 39.796 312.581 40.311C312.899 40.826 308.352 45.872 302.476 51.524C293.821 59.85 291.857 62.261 292.133 64.22C292.459 66.528 293.049 66.713 304.975 68.26C311.85 69.152 317.812 69.688 318.225 69.451C318.638 69.215 318.975 68.247 318.975 67.301C318.975 65.89 317.323 65.356 309.777 64.328C304.718 63.639 300.33 62.815 300.027 62.496C299.723 62.177 304.543 57.129 310.737 51.278C318.507 43.938 321.996 39.955 321.987 38.434C321.974 36.051 321.154 35.802 309.517 34.658C306.24 34.336 302.588 33.829 301.402 33.531C299.959 33.169 299.035 33.54 298.607 34.655ZM262.344 35.889C262.621 36.851 262.989 39.866 263.161 42.589C263.449 47.135 263.271 47.596 260.975 48.239C259.6 48.624 256.112 48.984 253.225 49.039C248.441 49.13 247.968 48.939 247.893 46.889C247.787 44.008 247.041 39.001 246.476 37.389C245.944 35.871 242.346 35.729 241.443 37.191C241.086 37.769 241.501 42.832 242.367 48.441C243.232 54.05 244.29 61.114 244.717 64.139C245.421 69.126 245.726 69.639 247.984 69.639C250.674 69.639 250.585 70.122 249.833 59.639L249.475 54.639L256.71 53.555C264.924 52.325 264.356 51.836 265.517 61.139C266.369 67.962 266.377 67.976 269.445 67.39C272.22 66.859 272.172 68.254 269.965 52.139C269.475 48.564 268.795 43.052 268.453 39.889C267.849 34.307 267.744 34.139 264.836 34.139C262.458 34.139 261.944 34.5 262.344 35.889ZM333.009 42.889C332.335 45.501 331.424 48.764 330.983 50.139C329.055 56.162 326.061 66.807 325.781 68.639C325.545 70.18 326.04 70.639 327.938 70.639C329.91 70.639 330.583 69.943 331.319 67.139C334.117 56.483 337.307 47.226 338.027 47.671C338.48 47.951 338.583 53.838 338.256 60.754C337.775 70.948 337.928 73.496 339.069 74.218C342.361 76.303 343.831 74.933 350.592 63.475C357.283 52.136 359.609 50.54 356.639 59.326C355.837 61.698 354.409 66.731 353.464 70.51C352.028 76.257 351.97 77.522 353.111 78.244C355.666 79.863 356.752 79.143 357.418 75.389C357.784 73.327 358.698 69.839 359.449 67.639C361.819 60.694 363.797 53.767 364.496 49.959C365.161 46.335 365.108 46.259 361.067 45.048C358.809 44.372 356.803 44.003 356.61 44.229C356.416 44.454 353.692 49.027 350.558 54.389C347.423 59.751 344.435 64.139 343.917 64.139C343.38 64.139 342.975 58.994 342.975 52.186V40.233L339.225 39.192C337.163 38.619 335.196 38.148 334.855 38.145C334.514 38.142 333.683 40.277 333.009 42.889ZM208.975 45.135C208.975 45.759 210.174 50.742 211.64 56.207C213.995 64.99 214.224 69.476 212.171 66.61C209.891 63.428 193.871 50.142 192.329 50.154C188.272 50.188 187.998 51.373 190.369 58.66C191.617 62.498 193.718 69.577 195.037 74.389C197.369 82.895 198.132 83.961 200.712 82.323C201.644 81.731 201.692 80.684 200.907 78.088C198.231 69.241 196.367 61.015 196.956 60.651C197.313 60.43 201.344 63.487 205.914 67.444C217.296 77.299 217.351 77.334 220.422 76.563C222.372 76.073 222.92 75.453 222.45 74.266C222.096 73.371 219.908 66.339 217.588 58.639C213.946 46.552 213.069 44.595 211.172 44.319C209.964 44.144 208.975 44.511 208.975 45.135ZM374.508 68.738C364.311 78.578 361.854 81.451 363.008 82.18C365.447 83.723 367.505 83.268 369.975 80.639C372.886 77.541 374.084 77.574 380.975 80.947C386.362 83.584 386.481 83.735 386.776 88.286C387.02 92.069 387.476 93.037 389.232 93.496C390.418 93.806 391.5 93.948 391.637 93.81C391.774 93.673 392.284 85.929 392.77 76.6C393.611 60.445 393.561 59.556 391.703 57.889C390.631 56.926 389.241 56.158 388.614 56.181C387.988 56.205 381.64 61.855 374.508 68.738ZM161.475 64.615C151.93 69.062 148.466 78.301 153.006 87.2C157.771 96.54 165.657 100.06 174.366 96.734C181.493 94.012 184.44 89.704 184.846 81.415C185.101 76.201 182.955 71.795 177.771 66.889C174.333 63.637 173.188 63.144 169.141 63.178C166.575 63.2 163.125 63.846 161.475 64.615ZM387.96 69.889C387.938 77.897 387.285 78.647 382.132 76.585C379.846 75.67 377.975 74.425 377.975 73.818C377.975 72.556 385.983 64.139 387.183 64.139C387.619 64.139 387.968 66.727 387.96 69.889ZM408.642 67.806C407.18 69.267 408.143 71.08 411.475 73.139C413.4 74.329 414.975 75.903 414.975 76.637C414.975 77.37 411.763 83.032 407.837 89.217C401.146 99.759 400.813 100.548 402.528 101.801C404.911 103.544 405.975 103.494 405.975 101.639C405.975 100.814 406.312 100.134 406.725 100.128C407.138 100.122 410.391 95.622 413.955 90.128C417.53 84.618 421.117 80.149 421.955 80.161C422.791 80.173 424.6 81.063 425.975 82.139C427.35 83.215 428.989 84.105 429.618 84.117C430.577 84.135 431.975 82.029 431.975 80.566C431.975 80.34 429.612 78.759 426.725 77.053C423.838 75.346 419.02 72.417 416.019 70.544C410.259 66.949 409.704 66.743 408.642 67.806ZM174.041 71.359C181.39 78.708 181.8 87.448 174.985 91.474C168.662 95.209 162.108 92.209 158.137 83.76C155.435 78.011 156.601 72.947 161.286 70.091C166.118 67.145 170.237 67.554 174.041 71.359ZM128.766 87.127C122.178 89.113 115.975 96.576 115.975 102.516C115.975 106.729 119.524 113.498 123.719 117.289C131.081 123.94 139.776 123.135 147.393 115.097C150.365 111.961 151.867 111.139 154.629 111.139C157.671 111.139 158.073 110.853 157.795 108.889C157.542 107.108 156.926 106.703 154.838 106.946C152.435 107.225 152.098 106.818 151.025 102.346C149.568 96.274 144.913 90.47 139.546 88.032C135.154 86.037 132.986 85.855 128.766 87.127ZM428.543 100.577C423.28 107.417 418.975 113.462 418.975 114.009C418.975 115.089 422.826 116.621 423.599 115.848C423.86 115.588 428.517 109.815 433.95 103.02C441.308 93.817 443.56 90.344 442.779 89.402C440.345 86.47 437.945 88.354 428.543 100.577ZM138.002 93.858C141.568 96.338 143.748 99.164 145.059 103.008C146.344 106.773 145.352 108.096 141.225 108.124C139.608 108.135 138.975 108.732 138.975 110.246C138.975 111.761 139.422 112.182 140.565 111.743C143.425 110.645 144.098 112.254 141.601 114.219C133.98 120.213 121.056 111.096 122.355 100.641C123.277 93.215 131.778 89.53 138.002 93.858ZM485.475 140.889C479.615 141.924 475.975 146.254 475.975 152.189C475.975 156.995 481.541 162.139 486.74 162.139C491.658 162.139 495.415 159.365 497 154.565C499.384 147.34 492.85 139.586 485.475 140.889ZM81.4314 144.003C74.2574 148.377 74.9794 159.571 82.6414 162.773C94.0844 167.554 103.255 153.141 94.0214 144.889C90.3564 141.614 85.8664 141.298 81.4314 144.003ZM41.4874 209.834C37.6834 221.977 37.6844 225.695 41.4894 228.74C44.9334 231.496 49.5354 231.836 52.7634 229.575C54.8774 228.095 55.1344 228.175 57.5744 231.075C60.5664 234.63 65.1324 235.163 68.6464 232.367C70.9124 230.564 77.2994 212.239 76.1084 210.96C75.7604 210.587 68.9964 208.41 61.0774 206.122C53.1584 203.835 46.1324 201.753 45.4624 201.496C44.6724 201.192 43.2794 204.114 41.4874 209.834ZM516.975 204.041C516.15 204.504 509.738 206.598 502.725 208.694C491.714 211.985 489.977 212.786 489.99 214.572C489.999 215.709 490.336 217.153 490.74 217.781C491.144 218.41 496.861 220.331 503.444 222.05C510.027 223.77 515.818 225.582 516.314 226.078C516.849 226.613 513.119 228.243 507.135 230.09C501.591 231.8 496.811 233.596 496.512 234.079C495.606 235.545 497.083 238.138 498.832 238.152C499.736 238.16 507.139 236.048 515.285 233.459C529.853 228.83 530.084 228.711 529.454 226.198C529.101 224.793 528.659 223.489 528.471 223.302C528.094 222.925 510.089 217.72 505.725 216.727C504.212 216.383 502.975 215.758 502.975 215.34C502.975 214.921 507.738 213.103 513.559 211.3C521.881 208.722 524.019 207.696 523.559 206.498C523.238 205.661 522.975 204.562 522.975 204.057C522.975 202.917 518.998 202.906 516.975 204.041ZM53.9034 210.264C57.5264 211.527 57.5334 212.766 53.9584 220.889C52.0604 225.201 49.8254 226.17 45.5574 224.532C43.6484 223.8 43.4574 218.599 45.1334 213.005C46.4114 208.74 48.0564 208.226 53.9034 210.264ZM66.9244 214.271C69.7864 215.269 70.1054 215.738 69.6094 218.218C68.3794 224.367 66.1584 228.14 63.7764 228.124C59.5534 228.096 58.6194 226.751 59.3124 221.697C59.9844 216.797 61.5014 213.139 62.8614 213.139C63.3104 213.139 65.1384 213.648 66.9244 214.271ZM34.6374 236.889C34.0444 237.865 30.8044 258.304 31.1844 258.67C31.3444 258.823 32.3634 259.104 33.4494 259.294C35.1974 259.6 35.5634 258.736 36.6494 251.739C37.3244 247.393 38.2524 243.462 38.7134 243.001C39.1734 242.541 43.3574 242.803 48.0124 243.583C65.6654 246.54 66.6314 246.561 67.2994 244.008C67.6274 242.753 67.6824 241.512 67.4204 241.251C66.8544 240.685 40.4454 236.243 37.2844 236.182C36.0794 236.158 34.8884 236.476 34.6374 236.889ZM518.283 239.04C517.078 240.178 515.681 241.841 515.18 242.737C514.448 244.045 513.857 244.146 512.187 243.253C509.031 241.563 504.471 241.917 501.836 244.054C499.749 245.747 499.502 246.704 499.708 252.304C500.018 260.749 501.827 269.139 503.337 269.139C505.506 269.139 535.433 264.015 535.881 263.567C536.119 263.328 535.563 259.637 534.645 255.363C533.726 251.09 532.973 246.704 532.97 245.616C532.954 239.312 522.809 234.769 518.283 239.04ZM526.366 244.673C528.986 247.293 531.075 257.37 529.225 258.465C528.812 258.709 526.603 259.218 524.315 259.596C519.653 260.367 519.648 260.361 518.506 251.942C517.973 248.015 518.205 246.909 519.922 245.192C522.369 242.745 524.284 242.591 526.366 244.673ZM512.596 250.139C513.222 251.514 513.97 254.539 514.256 256.862C514.768 261.009 514.716 261.097 511.384 261.722C506.322 262.672 505.327 261.853 504.565 256.108C504.007 251.9 504.209 250.538 505.62 248.979C507.902 246.457 511.165 247 512.596 250.139ZM40.9884 264.833C31.5584 266.757 25.7384 281.318 30.9704 289.898C37.7294 300.984 56.6014 300.411 62.5704 288.939C64.2824 285.648 64.3534 276.441 62.6904 273.472C61.0894 270.617 54.1334 265.142 52.0874 265.128C51.2014 265.122 48.9004 264.939 46.9754 264.721C45.0504 264.503 42.3564 264.553 40.9884 264.833ZM53.9204 272.406C58.0054 274.473 60.1044 279.089 58.9154 283.393C57.4164 288.822 53.8684 291.142 47.0904 291.124C40.2934 291.106 37.1924 289.674 34.6974 285.403C33.0894 282.649 32.9804 281.653 33.9654 278.67C35.7264 273.333 39.2024 271.136 45.8604 271.154C48.9484 271.162 52.5754 271.725 53.9204 272.406ZM511.746 272.337C507.157 273.556 502.307 278.855 501.412 283.624C499.74 292.537 503.658 300.889 510.583 303.175C515.425 304.773 524.309 304.535 527.832 302.713C534.417 299.308 536.748 294.343 536.081 285.139C535.32 274.637 524.503 268.947 511.746 272.337ZM527.328 279.635C533.857 283.913 533.086 292.962 525.876 296.69C522.548 298.411 514.732 298.593 511.659 297.022C506.076 294.167 504.153 286.611 507.848 282.048C511.695 277.297 521.842 276.04 527.328 279.635ZM41.4754 302.465C33.3394 305.649 30.8324 309.24 30.8324 317.714C30.8324 328.433 36.5734 334.151 47.3064 334.123C54.1794 334.104 59.8454 331.585 63.2044 327.053C65.8164 323.528 65.9814 314.696 63.5354 309.272C60.4144 302.35 49.9894 299.133 41.4754 302.465ZM503.409 308.442C501.073 310.452 500.497 312.205 498.895 322.192C497.885 328.488 496.774 334.606 496.427 335.787C495.603 338.587 498.015 342.202 503.022 345.672C505.739 347.554 506.975 349.15 506.975 350.775C506.975 353.535 505.611 353.72 500.629 351.639C495.423 349.464 492.324 349.696 491.64 352.313C490.981 354.832 491.567 356.139 493.354 356.139C494.048 356.139 501.065 357.967 508.948 360.201C523.794 364.408 524.919 364.394 524.96 360C524.971 358.825 523.125 357.86 518.436 356.591C514.839 355.617 511.636 354.399 511.317 353.884C510.166 352.021 513.621 350.228 520.921 348.901C527.916 347.629 528.447 347.347 529.714 344.243L531.062 340.939L525.769 341.65C521.079 342.279 516.715 343.499 511.975 345.504C511.01 345.913 508.619 344.427 505.268 341.334C501.08 337.47 500.177 336.083 500.656 334.249C500.984 332.996 501.768 331.772 502.397 331.531C503.026 331.289 509.783 332.009 517.411 333.13C525.039 334.25 531.393 335.049 531.532 334.903C531.893 334.526 532.233 331.846 532.093 330.477C532.028 329.838 530.062 329.017 527.725 328.654C519.411 327.361 519.642 327.601 520.334 320.975C521.094 313.712 519.289 308.589 515.458 307.133C511.02 305.445 506.296 305.958 503.409 308.442ZM54.6274 308.168C56.2504 308.733 58.3424 310.49 59.2764 312.072C64.0354 320.128 58.1994 328.139 47.5724 328.139C41.4854 328.139 38.3924 326.537 36.4084 322.357C35.0134 319.418 34.9354 318.216 35.9234 314.918C36.8764 311.738 37.9034 310.621 41.2884 309.084C46.0004 306.944 50.2764 306.651 54.6274 308.168ZM513.265 313.389C515.042 314.718 515.387 316.381 515.133 322.389C514.961 326.471 513.917 326.877 507.1 325.514C504.517 324.997 503.975 324.416 503.975 322.163C503.975 314.449 508.706 309.981 513.265 313.389ZM53.9754 337.769C46.5504 339.709 39.4204 341.547 38.1314 341.852C36.2144 342.307 35.8864 342.884 36.3314 345.024C36.6304 346.462 37.3284 350.051 37.8824 352.999C39.7404 362.886 44.0034 366.676 53.0334 366.468C63.9974 366.216 71.9624 360.316 71.9714 352.438C71.9764 348.391 70.0234 338.919 68.9464 337.767C68.4984 337.288 68.3694 336.275 68.6604 335.517C69.3504 333.719 69.6424 333.674 53.9754 337.769ZM66.0984 344.213C66.4714 345.547 66.8174 348.439 66.8684 350.639C66.9484 354.081 66.5094 354.945 63.7184 356.835C59.0564 359.991 51.6764 361.772 48.2514 360.567C45.0244 359.432 42.7064 355.203 42.5714 350.203L42.4754 346.683L52.9754 343.991C58.7504 342.51 63.9134 341.408 64.4474 341.543C64.9824 341.677 65.7254 342.879 66.0984 344.213ZM71.6874 379.151C68.2694 381.839 67.5254 385.957 69.0234 393.894C70.2164 400.215 70.1784 400.557 68.0884 402.248C66.3614 403.647 65.3254 403.808 63.0804 403.026C58.3564 401.379 56.5854 395.19 59.5464 390.671C60.7664 388.809 60.8704 387.811 60.0114 386.206C58.4774 383.341 57.4684 383.606 55.0574 387.507C51.4804 393.293 52.8024 400.004 58.7764 406.389C63.3524 411.279 72.6214 409.5 74.7504 403.323C75.3244 401.658 75.3034 397.912 74.6934 393.454C73.5014 384.733 74.0344 382.894 77.6294 383.322C79.5414 383.55 80.8434 384.701 82.2404 387.403C84.0614 390.925 84.0814 391.329 82.5514 393.664C81.3034 395.568 81.1684 396.631 81.9804 398.149C83.3574 400.722 84.4954 400.662 86.4184 397.916C89.9504 392.874 86.9474 382.326 80.9764 378.799C77.2724 376.611 74.7974 376.704 71.6874 379.151ZM479.012 383.051C477.606 386.445 477.477 386.196 484.475 393.653C485.575 394.826 489.818 399.465 493.903 403.962C497.988 408.459 501.712 412.139 502.178 412.139C502.643 412.139 503.449 411.022 503.968 409.657C504.741 407.624 504.465 406.691 502.444 404.511C499.428 401.257 499.438 400.991 502.804 394.139C505.414 388.828 505.658 388.628 509.929 388.322C514.145 388.02 516.867 386.165 516.943 383.541C516.963 382.842 512.714 382.201 505.225 381.774C498.763 381.405 490.516 380.83 486.899 380.494L480.323 379.884L479.012 383.051ZM499.826 387.657C500.494 388.325 497.899 393.957 496.32 395.268C495.15 396.239 494.047 395.644 490.428 392.093C487.979 389.689 485.975 387.304 485.975 386.793C485.975 385.914 498.889 386.72 499.826 387.657ZM464.574 407.889C460.799 413.252 456.542 419.727 455.113 422.278L452.515 426.917L454.745 432.297C457.122 438.033 457.626 442.139 455.953 442.139C455.39 442.139 452.978 440.339 450.591 438.139C445.782 433.707 444.836 433.42 442.55 435.707C441.127 437.13 441.465 437.72 446.229 442.126C450.423 446.005 451.227 447.232 450.238 448.245C449.241 449.267 447.966 449.186 443.65 447.826C436.795 445.665 434.07 445.726 430.975 448.107C429.003 449.624 428.733 450.29 429.698 451.258C430.571 452.134 431.572 452.199 433.198 451.487C434.478 450.926 436.788 450.828 438.475 451.263C440.125 451.688 443.037 452.413 444.946 452.873C447.906 453.586 448.44 454.155 448.57 456.738C448.746 460.236 449.521 462.903 452.142 469.024C453.974 473.303 454.067 473.366 455.997 471.619C458.483 469.37 458.488 467.229 456.02 461.878C453.747 456.948 453.027 452.007 454.506 451.484C455.073 451.283 457.773 453.146 460.506 455.624C465.723 460.355 466.658 460.611 468.404 457.786C469.293 456.347 468.581 455.196 464.215 451.015C456.684 443.804 458.831 442.282 471.134 446.111L477.471 448.084L479.77 445.604L482.069 443.125L479.646 442.204C474.688 440.319 468.369 438.92 464.975 438.955C461.649 438.99 461.385 438.734 459.666 433.815C457.633 428 457.451 424.476 459.081 422.511C460.46 420.85 461.018 421.141 473.925 430.25C479.458 434.155 484.572 437.124 485.29 436.849C486.533 436.371 494.509 425.072 496.862 420.455C498.591 417.062 498.197 414.556 495.415 411.25C489.932 404.734 482.535 406.443 476.433 415.636C474.424 418.663 472.625 421.139 472.435 421.139C471.73 421.139 464.975 416.925 464.975 416.485C464.975 416.234 467.226 412.614 469.978 408.44C473.859 402.554 474.729 400.548 473.856 399.495C473.237 398.749 472.439 398.139 472.084 398.139C471.728 398.139 468.349 402.526 464.574 407.889ZM85.2444 404.572C81.2724 407.559 75.0984 412.091 71.5224 414.642L65.0224 419.281L69.7494 425.996C77.9544 437.654 79.4454 439.28 81.2834 438.574C83.5164 437.718 83.4194 436.849 80.7174 433.466C79.4754 431.911 76.9834 428.517 75.1794 425.923L71.8994 421.206L76.0874 418.173C78.3914 416.504 80.6414 415.139 81.0884 415.139C81.5354 415.139 83.7534 417.867 86.0174 421.201C90.2854 427.486 92.4034 429.111 94.1054 427.409C94.7654 426.749 93.5654 424.218 90.5384 419.887C88.0284 416.297 85.9754 412.732 85.9754 411.965C85.9754 410.632 90.8184 407.139 92.6664 407.139C93.1514 407.139 95.7264 410.522 98.3884 414.657C102.579 421.167 103.445 422.009 104.851 420.94C105.744 420.261 106.63 419.61 106.821 419.493C107.143 419.296 93.1344 399.139 92.6754 399.139C92.5604 399.139 89.2164 401.584 85.2444 404.572ZM490.225 414.531C491.187 415.262 491.975 416.66 491.975 417.639C491.975 419.035 487.168 428.064 485.374 430.038C484.978 430.473 476.975 425.136 476.975 424.437C476.975 423.196 479.577 419.257 482.291 416.389C485.607 412.885 487.48 412.447 490.225 414.531ZM104.404 427.917C101.616 430.514 95.8844 435.557 91.6674 439.124C84.0494 445.568 84.0134 445.621 85.9634 447.571C87.9134 449.522 87.9404 449.521 90.2004 447.5C91.4514 446.381 93.9624 444.445 95.7794 443.196C98.9454 441.021 99.1644 441 101.029 442.688C103.461 444.889 103.465 446.916 101.051 455.619C99.1174 462.595 99.3234 464.523 102.264 466.964C103.403 467.91 103.887 467.377 104.871 464.093C105.535 461.876 106.346 457.806 106.672 455.049C107.154 450.983 107.569 450.154 108.87 450.658C112.152 451.928 115.977 452.355 118.469 451.73C121.857 450.88 125.109 445.532 124.278 442.18C123.676 439.752 118.916 433.404 112.475 426.438L109.475 423.194L104.404 427.917ZM114.408 435.492C119.562 441.781 118.738 447.139 112.618 447.139C110.82 447.139 102.975 439.34 102.975 437.552C102.975 436.33 108.761 431.173 110.158 431.15C110.534 431.144 112.446 433.098 114.408 435.492ZM121.958 456.373C113.462 477.821 113.715 476.819 116.207 479.141C118.753 481.513 119.853 481.613 122.555 479.72C125.181 477.881 133.467 473.194 143.301 467.983L151.127 463.837L148.667 461.377L146.207 458.917L137.841 464.292C122.598 474.084 120.927 474.608 123.492 468.787C124.255 467.056 126.423 461.612 128.311 456.69C131.029 449.602 131.512 447.37 130.631 445.959C128.192 442.054 127.12 443.342 121.958 456.373ZM422.814 454.729C421.36 456.182 421.435 457.092 423.682 465.313C425.034 470.26 425.928 474.519 425.67 474.778C425.411 475.036 421.494 473.198 416.965 470.693C412.437 468.189 408.289 466.139 407.748 466.139C407.206 466.139 405.389 467.296 403.709 468.71C402.028 470.124 396.71 473.261 391.891 475.681C387.071 478.102 382.888 480.471 382.594 480.947C382.3 481.423 384.74 487.06 388.017 493.475C391.294 499.89 393.975 505.791 393.975 506.589C393.975 507.387 393.23 508.456 392.321 508.966C390.239 510.13 391.241 513.151 393.694 513.107C394.673 513.09 396.352 512.412 397.425 511.601C400.605 509.196 399.844 504.417 394.675 494.319C392.09 489.269 389.975 484.507 389.975 483.737C389.975 482.036 396.657 477.928 398.749 478.342C399.575 478.505 403.006 484.003 406.375 490.56C409.743 497.116 412.962 502.635 413.528 502.823C414.093 503.012 415.394 502.553 416.419 501.803C418.187 500.511 417.902 499.713 410.906 486.346C406.849 478.594 403.795 471.985 404.12 471.661C404.851 470.93 426.196 480.964 427.21 482.515C428.532 484.538 428.013 487.47 425.942 489.674C424.176 491.554 424.102 491.999 425.378 493.058C426.467 493.962 427.376 493.995 428.888 493.185C432.127 491.452 433.239 488.398 432.496 483.275C431.397 475.693 425.866 453.139 425.107 453.139C424.72 453.139 423.688 453.854 422.814 454.729ZM146.361 472.698C143.123 477.405 138.764 483.593 136.674 486.447L132.873 491.638L135.084 493.428C136.3 494.413 137.62 494.863 138.016 494.429C139.632 492.659 156.975 467.964 156.975 467.433C156.975 466.764 153.763 464.218 152.861 464.171C152.523 464.153 149.598 467.991 146.361 472.698ZM158.716 477.425C154.285 480.107 150.667 485.097 148.916 490.941C145.138 503.553 160.584 514.977 170.897 507.198L173.255 505.419L171.196 503.36C169.395 501.559 168.907 501.475 167.306 502.688C163.688 505.43 156.778 504.196 155.097 500.507C153.42 496.827 153.718 494.046 156.38 488.527C159.27 482.537 160.724 481.216 165.231 480.485C170.329 479.658 174.721 482.267 175.535 486.607C176.172 490.002 178.805 491.98 180.933 490.665C182.559 489.66 180.878 483.82 178.093 480.8C172.474 474.705 165.278 473.452 158.716 477.425ZM186.953 487.497C183.526 495.83 175.975 515.913 175.977 516.689C175.979 517.212 181.041 519.496 187.227 521.766C197.288 525.458 198.607 525.727 199.729 524.32C201.337 522.302 201.06 522.101 191.225 518.117C186.688 516.278 182.975 514.462 182.975 514.079C182.975 513.314 185.982 505.855 186.523 505.28C186.708 505.082 190.048 506.138 193.943 507.627C197.839 509.115 201.69 510.079 202.501 509.768C205.697 508.541 203.695 506.345 196.981 503.711C193.134 502.202 189.731 500.553 189.418 500.047C188.761 498.984 191.042 492.139 192.053 492.139C192.425 492.139 196.231 493.553 200.511 495.281C207.968 498.292 208.35 498.347 209.638 496.585C210.378 495.574 210.643 494.447 210.229 494.082C209.814 493.716 204.606 491.603 198.655 489.386C187.894 485.377 187.829 485.366 186.953 487.497ZM362.815 489.161C355.583 492.982 352.668 499.804 354.824 507.864C357.344 517.288 362.644 522.139 370.419 522.139C377.153 522.139 382.347 519.165 384.349 514.163C386.702 508.282 386.478 507.139 382.975 507.139C380.46 507.139 379.975 507.534 379.975 509.583C379.975 513.565 376.001 517.339 371.808 517.339C366.511 517.339 363.348 514.752 361.013 508.511C358.373 501.456 358.442 499.926 361.564 496.216C363.598 493.798 364.948 493.139 367.864 493.139C369.905 493.139 372.103 493.667 372.748 494.312C373.637 495.201 374.532 495.206 376.448 494.333C379.812 492.8 379.633 491.511 375.725 489.128C371.667 486.654 367.541 486.665 362.815 489.161ZM277.356 512.049C268.668 517.346 272.728 531.139 282.975 531.139C293.432 531.139 297.48 517.467 288.622 512.065C284.642 509.639 281.316 509.634 277.356 512.049Z" fill="#F60622"/>
<path d="M232.001 194.183C229.983 200.496 216.71 181.027 197.245 174.807C177.78 168.587 163.636 158.427 165.653 152.114C167.67 145.801 192.535 148.463 212 154.683C231.465 160.903 234.018 187.87 232.001 194.183Z" fill="white"/>
<path d="M312.926 189.859C310.909 196.172 297.5 178.683 290.5 166.183C271.035 159.963 266.483 152.996 268.5 146.683C270.518 140.37 275.535 140.463 295 146.683C314.465 152.903 314.944 183.546 312.926 189.859Z" fill="white"/>
<path fill-rule="evenodd" clip-rule="evenodd" d="M183.833 141.184C180.567 141.609 177.439 142.412 176.883 142.968C176.326 143.525 175.212 143.981 174.408 143.981C172.362 143.981 163.43 149.769 159.436 153.682C155.312 157.723 151.27 163.585 151.27 165.525C150.341 166.981 151.27 165.525 150.341 166.981C148.5 167.683 144.796 184.492 145.009 193.981C145.13 199.39 148.138 215.261 149.178 215.974C149.584 216.253 152.073 220.97 154.709 226.457C162.452 242.572 169.656 252.448 184.713 267.587C200.598 283.558 226.941 302.414 230.209 300.151C231.068 299.557 234.245 297.635 237.27 295.88C262.064 281.494 287.667 259.725 299.485 242.981C304.424 235.983 315.707 214.156 316.849 209.392C317.232 207.791 317.929 205.991 318.397 205.392C318.865 204.792 319.424 202.542 319.639 200.392C319.854 198.241 320.362 193.968 320.768 190.896C323.214 172.395 312.979 153.742 295.338 144.553C288.501 140.99 287.262 140.681 279.838 140.683C266.074 140.685 252.273 146.658 239.68 158.063C234.636 162.631 230.27 164.417 230.27 161.914C230.27 161.001 226.997 157.635 221.945 153.352C216.147 148.436 200.308 141.231 194.27 140.762C191.795 140.57 187.098 140.76 183.833 141.184ZM284.999 144.183C287.628 144.913 287.499 144.683 289.499 145.683C291.499 147.183 291.506 147.037 293.069 147.874C295.638 149.248 294.547 148.231 295.499 149.183C295.999 149.683 295.999 149.683 295.999 149.683C296.499 150.183 296.499 150.183 296.999 150.683C297.499 151.183 297.517 151.097 299.474 152.379C303.121 154.769 307.711 161.674 310.183 168.491C311.887 173.189 312.298 176.245 312.066 182.491C311.899 187.01 311.345 190.397 310.791 190.287C310.253 190.18 309.114 187.255 308.259 183.787C307.405 180.319 305.445 175.181 303.904 172.369C300.717 166.555 291.415 155.979 289.489 155.98C287.578 154.341 289.489 155.98 287.578 154.341C287.232 153.439 283.196 150.942 278.609 148.793C274.023 146.643 270.27 144.456 270.27 143.933C270.27 142.63 280.175 142.844 284.999 144.183ZM206.265 155.101C216.036 160.307 222.904 165.871 227.162 172.029C229.614 175.575 230.443 178.031 230.924 183.174C231.561 190.001 230.743 195.94 229.38 194.376C228.951 193.884 227.8 191.231 226.822 188.481C219.374 167.548 193.981 151.766 174.148 155.744C165.604 157.457 165.43 154.725 173.875 151.48C176.712 150.39 180.532 150.089 187.942 150.371C197.693 150.742 198.45 150.937 206.265 155.101ZM325.743 200.231C325.325 201.469 324.891 202.931 324.78 203.481C324.668 204.031 324.322 205.156 324.011 205.981C321.993 211.337 321.27 214.922 321.27 219.574C321.27 223.911 321.672 225.149 323.493 226.424C326.476 228.514 330.589 228.391 332.615 226.152C335.082 223.427 334.689 215.747 331.598 206.231C328.893 197.904 327.137 196.105 325.743 200.231ZM324.389 282.275C319.716 296.439 320.353 301.96 326.847 303.59C329.995 304.38 334.223 301.652 334.415 298.708C334.745 293.656 333.968 289.082 331.574 281.981C330.184 277.856 328.7 274.107 328.277 273.65C327.854 273.193 326.105 277.074 324.389 282.275Z" fill="#F60622"/>
<path d="M389.899 307.838C382.232 303.367 373.521 301 364.739 301C351.084 301 338.151 306.548 328.469 316.397C318.768 306.548 305.831 301 292.2 301C283.413 301 274.707 303.367 267.038 307.827C250.365 317.491 240 335.921 240 355.924C240 361.738 240.884 367.455 242.462 372.384C250.866 412.319 322.687 460.157 325.752 462.196C326.585 462.747 327.535 463 328.489 463C329.45 463 330.394 462.747 331.229 462.196C334.293 460.157 406.077 412.371 414.366 372.927C416.116 367.415 417 361.714 417 355.956C416.959 335.953 406.579 317.513 389.899 307.838Z" fill="white"/>
<g clip-path="url(#clip0_47_108)">
<path d="M389.899 307.838C382.232 303.367 373.521 301 364.739 301C351.084 301 338.151 306.548 328.469 316.397C318.768 306.548 305.831 301 292.2 301C283.413 301 274.707 303.367 267.038 307.827C250.365 317.491 240 335.921 240 355.924C240 361.738 240.884 367.455 242.462 372.384C250.866 412.319 322.687 460.157 325.752 462.196C326.585 462.747 327.535 463 328.489 463C329.45 463 330.394 462.747 331.229 462.196C334.293 460.157 406.077 412.371 414.366 372.927C416.116 367.415 417 361.714 417 355.956C416.959 335.953 406.579 317.513 389.899 307.838Z" fill="#EF0D31"/>
</g>
<path d="M389.647 308.27L389.648 308.27C406.167 317.852 416.459 336.123 416.5 355.957C416.5 361.663 415.623 367.313 413.89 372.776L413.882 372.8L413.877 372.824C411.828 382.575 405.842 392.885 397.918 402.919C389.999 412.946 380.177 422.659 370.507 431.214C351.174 448.318 332.489 460.757 330.953 461.779C330.207 462.271 329.36 462.5 328.489 462.5C327.625 462.5 326.773 462.271 326.029 461.78C324.503 460.765 305.804 448.311 286.441 431.127C276.759 422.535 266.922 412.77 258.984 402.669C251.04 392.561 245.029 382.155 242.951 372.281L242.946 372.256L242.938 372.231C241.378 367.355 240.5 361.69 240.5 355.924C240.5 336.091 250.777 317.83 267.289 308.26L267.29 308.26C274.883 303.843 283.502 301.5 292.2 301.5C305.692 301.5 318.503 306.992 328.113 316.748L328.47 317.11L328.826 316.748C338.416 306.992 351.222 301.5 364.739 301.5C373.432 301.5 382.056 303.843 389.647 308.27Z" stroke="black"/>
<defs>
<clipPath id="clip0_47_108">
<rect width="177" height="89" fill="white" transform="translate(240 374)"/>
</clipPath>
</defs>
</svg>
