<svg version="1.1" id="_x3C_Layer_x3E_" xmlns="http://www.w3.org/2000/svg" xmlns:xlink="http://www.w3.org/1999/xlink" x="0" y="0" viewBox="0 0 1550.2 1439.5" style="enable-background:new 0 0 1550.2 1439.5" xml:space="preserve"><style>.st0{fill:#298e5e}.st1,.st10{fill:#41b883}.st10{opacity:.26;enable-background:new}.st33{fill:#e3f5ff}.st45{fill:#eff9ff}.st47{fill:#f1a17f}.st48{fill:#f68987}.st49{fill:#e87979}.st50{fill:#0d1d7e}.st51{fill:#66dda4}.st52{fill:#171733}.st54{opacity:.55;fill:#e87979;enable-background:new}.st57{fill:#38a571}.st59{fill:#7de2b1}.st60{fill:#1c1c1c}</style><path class="st0" d="M1386.2 748.3c0-36.9-22.6-69.2-56.5-87.4-18.7-10-28.6-29-24-47.6 1.3-5.2 2-10.6 2-16.1 0-36.7-29.9-67.4-70-75.1-10.6-2-17.7-10.5-16.7-19.8.5-4.1.6-8.1.1-11.4-3.2-21.3-17.2-32.9-37.3-42.3-10.3-4.9-15.4-15.1-12.5-25 1.4-4.8 2.3-9.9 2.4-15.2 1.2-39.2-23.4-55.4-40.4-62.6-8.3-3.6-14.4-10.1-16.9-17.8-6.6-21-29.7-36.1-56.6-34.6-26.3 1.5-47.8 19.3-50.7 41.8 0 .2 0 .4-.1.5-.9 7.7-8.6 13.4-17.6 13-2.9-.1-5.9-.1-9 .1-33.3 2.4-60.1 25.6-62.4 54.3-.4 4.6-.1 9 .7 13.3 1.8 9.9-3.3 19.8-13.2 25.2-18.7 10.2-33.3 25.5-41 43.7-3 7-9.8 12.4-18.2 14.4-37.5 9-65 38.5-65 73.6 0 9.4 2 18.5 5.6 26.8 5.6 12.9-1.6 27.2-16.4 32.5-39.8 14.3-67.8 48-67.8 87.4 0 15.9 4.6 31 12.7 44.1 12.3 19.9 7.7 44.6-11.8 59.7-27.5 21.4-44.8 52.3-44.8 86.7v42.6h736.6v-42.6c0-17.2-12.7-33.6-27.6-48.3-16.3-16-17.4-39.4-3.7-57.1 12.7-16.2 20.1-35.7 20.1-56.8z"/><path class="st0" d="M855.6 832.1c0-42.4-20.5-79.6-51.3-100.5-17-11.5-26-33.4-21.8-54.7 1.2-6 1.8-12.1 1.8-18.5 0-42.2-27.2-77.5-63.6-86.3-9.6-2.3-16.1-12.1-15.2-22.8.4-4.8.6-9.3.1-13.1-2.9-24.5-15.6-37.8-33.8-48.7-9.4-5.6-14-17.4-11.3-28.7 1.3-5.6 2.1-11.4 2.2-17.4 1.1-45.1-21.2-63.6-36.7-72-7.6-4.1-13.1-11.6-15.3-20.5-6-24.1-27-41.5-51.4-39.7-23.9 1.7-43.4 22.2-46 48 0 .2 0 .4-.1.6-.8 8.9-7.8 15.4-16 15-2.7-.1-5.4-.1-8.1.2-30.3 2.7-54.5 29.4-56.7 62.4-.3 5.2-.1 10.4.6 15.3 1.6 11.4-3 22.8-12 28.9-17 11.7-30.2 29.4-37.2 50.3-2.7 8.1-8.9 14.3-16.5 16.6-34 10.3-59 44.3-59 84.6 0 10.9 1.8 21.3 5.1 30.8 5.1 14.8-1.5 31.2-14.9 37.3-36.1 16.4-61.5 55.2-61.5 100.4 0 18.3 4.2 35.6 11.5 50.7 11.1 22.9 7 51.3-10.7 68.7-25 24.6-40.7 60.1-40.7 99.7v48.9h668.8v-48.9c0-19.8-11.5-38.6-25.1-55.6-14.8-18.4-15.8-45.3-3.4-65.6 11.5-18.8 18.2-41.2 18.2-65.4z"/><path class="st1" d="M951.9 855.2c0-37.9-18.3-71.2-45.9-89.9-15.2-10.3-23.2-29.9-19.5-48.9 1-5.3 1.6-10.9 1.6-16.5 0-37.8-24.3-69.3-56.8-77.2-8.6-2.1-14.4-10.8-13.6-20.4.4-4.3.5-8.3.1-11.7-2.6-21.9-13.9-33.8-30.3-43.5-8.4-5-12.5-15.6-10.1-25.7 1.2-5 1.8-10.2 2-15.6 1-40.3-19-56.9-32.8-64.4-6.8-3.7-11.7-10.4-13.7-18.3-5.4-21.5-24.1-37.1-45.9-35.5-21.3 1.5-38.9 19.8-41.1 42.9 0 .2 0 .4-.1.5-.7 7.9-7 13.8-14.3 13.4-2.4-.1-4.8-.1-7.3.1-27.1 2.4-48.8 26.3-50.7 55.8-.3 4.7-.1 9.3.5 13.7 1.5 10.2-2.7 20.4-10.7 25.9-15.2 10.5-27 26.2-33.3 45-2.4 7.2-8 12.7-14.8 14.8-30.4 9.2-52.8 39.6-52.8 75.6 0 9.7 1.6 19 4.6 27.6 4.6 13.3-1.3 27.9-13.3 33.4-32.3 14.7-55 49.3-55 89.8 0 16.4 3.7 31.8 10.3 45.4 10 20.5 6.3 45.8-9.6 61.4-22.3 22-36.4 53.8-36.4 89.1v43.8h598.1V1022c0-17.7-10.3-34.6-22.4-49.7-13.2-16.5-14.1-40.5-3-58.7 10.2-16.7 16.2-36.8 16.2-58.4z"/><path class="st1" d="M297.2 932.2c9.4 15.3 8.6 35.6-2.5 49.4-10.2 12.8-18.9 26.9-18.9 41.9v36.9h503.7v-36.9c0-29.8-11.8-56.6-30.6-75.1-13.3-13.1-16.5-34.4-8.1-51.7 5.5-11.4 8.7-24.4 8.7-38.2 0-34.1-19.1-63.3-46.3-75.6-10.1-4.6-15.1-16.9-11.2-28.1 2.5-7.2 3.9-15.1 3.9-23.2 0-30.4-18.8-56-44.5-63.7-5.7-1.7-10.4-6.4-12.4-12.5-5.2-15.8-15.2-29.1-28-37.9-6.8-4.6-10.2-13.2-9-21.8.5-3.7.7-7.6.5-11.5-1.6-24.8-19.9-45-42.7-47-2.1-.2-4.1-.2-6.1-.1-6.2.3-11.4-4.6-12-11.3v-.5c-1.9-19.5-16.7-34.9-34.7-36.2-18.4-1.3-34.1 11.8-38.7 29.9-1.7 6.7-5.8 12.3-11.5 15.4-11.7 6.3-28.5 20.3-27.6 54.2.1 4.5.7 8.9 1.7 13.1 2 8.5-1.5 17.4-8.5 21.6-13.7 8.2-23.3 18.3-25.5 36.7-.3 2.8-.2 6.2.1 9.8.7 8.1-4.2 15.4-11.4 17.2-27.4 6.6-47.9 33.2-47.9 65 0 4.8.5 9.4 1.3 13.9 3.1 16.1-3.6 32.5-16.4 41.2-23.2 15.7-38.6 43.7-38.6 75.7-.4 18.3 4.6 35.3 13.2 49.4z" style="opacity:.26;enable-background:new"/><path class="st0" d="M665.4 758c-13.5 31.1-6.8 43.3-4.1 77.1s-17.6 40.6-27.1 69-2.7 41.9-5.4 77.1c-2.7 35.2-13.5 37.9-23 70.3-9.5 32.5 0 77.1 6.8 138 4.2 37.7-5.6 107.4-13.7 155.1H474.8c9.6-90.2 23-235.3 14.8-267.4-12.2-47.3 6.8-125.8 18.9-150.1 12.2-24.3 14.9-54.1 12.2-75.7-2.7-21.6 9.5-29.8 24.3-46 14.9-16.2 14.9-51.4 21.6-81.2 6.8-29.8 36.5-41.9 40.6-67.6 4.1-25.7 68.3-73.7 86.6-53.4 19.9 22.1-18.3 48.7-22.3 73-4 24.4 7.5 50.7-6.1 81.8z"/><defs><path id="SVGID_1_" d="M1 1h1L1 2z"/></defs><defs><path id="SVGID_2_" d="M-1-1h-1l1-1z"/></defs><clipPath id="SVGID_3_"><use xlink:href="#SVGID_1_" style="overflow:visible"/></clipPath><clipPath id="SVGID_4_" style="clip-path:url(#SVGID_3_)"><use xlink:href="#SVGID_2_" style="overflow:visible"/></clipPath><linearGradient id="SVGID_5_" gradientUnits="userSpaceOnUse" x1="6293.786" y1="498.333" x2="6609.98" y2="391.235" gradientTransform="rotate(180 3517.576 720)"><stop offset="0" style="stop-color:#fff"/><stop offset="1" style="stop-color:#000"/></linearGradient><path d="M665.4 758c-13.5 31.1-6.8 43.3-4.1 77.1s-17.6 40.6-27.1 69-2.7 41.9-5.4 77.1c-2.7 35.2-13.5 37.9-23 70.3-9.5 32.5 0 77.1 6.8 138 4.2 37.7-5.6 107.4-13.7 155.1h-79.2c5.2-51.5 9.6-107.7 7.7-135.9-4.1-59.9-18.3-89.3-3-128.8 15.2-39.6 40.6-36.5 33.5-90.3s-6.1-89.3 30.4-127.8c36.5-38.6 12.2-77.1 14.2-108.6 2-31.4 29.4-38.6 34.5-70s6.1-39.6 56.8-80.1c19.9 22.1-18.3 48.7-22.3 73-4 24.5 7.5 50.8-6.1 81.9z" style="clip-path:url(#SVGID_4_);fill:url(#SVGID_5_)"/><path class="st0" d="M665.4 758c-13.5 31.1-6.8 43.3-4.1 77.1s-17.6 40.6-27.1 69-2.7 41.9-5.4 77.1c-2.7 35.2-13.5 37.9-23 70.3-9.5 32.5 0 77.1 6.8 138 4.2 37.7-5.6 107.4-13.7 155.1h-79.2c5.2-51.5 9.6-107.7 7.7-135.9-4.1-59.9-18.3-89.3-3-128.8 15.2-39.6 40.6-36.5 33.5-90.3s-6.1-89.3 30.4-127.8c36.5-38.6 12.2-77.1 14.2-108.6 2-31.4 29.4-38.6 34.5-70s6.1-39.6 56.8-80.1c19.9 22.1-18.3 48.7-22.3 73-4 24.5 7.5 50.8-6.1 81.9z"/><path class="st1" d="M431.1 1344.7c-38.7-89.5-65.2-238.4-61.9-278.9 4.1-50.7-27.4-139-42.6-180.6s-7.1-78.1-7.1-104.5-28.4-42.6-40.6-75.1 11.2-54.8 11.2-83.2-8.1-90.3 0-90.3c0 0 33.5 24.3 52.8 52.8 19.3 28.4 14.2 73 37.5 91.3s36.5 34.5 41.6 73c5.1 38.6 16.2 39.6 35.5 83.2s-7.1 79.1 3 126.8 32.5 43.6 69 126.8c25.9 59 18.1 188.4 11.4 258.6l-109.8.1z"/><defs><path id="SVGID_6_" d="M1 1h1L1 2z"/></defs><defs><path id="SVGID_7_" d="M-1-1h-1l1-1z"/></defs><clipPath id="SVGID_8_"><use xlink:href="#SVGID_6_" style="overflow:visible"/></clipPath><clipPath id="SVGID_9_" style="clip-path:url(#SVGID_8_)"><use xlink:href="#SVGID_7_" style="overflow:visible"/></clipPath><linearGradient id="SVGID_10_" gradientUnits="userSpaceOnUse" x1="6621.895" y1="507.232" x2="6730.825" y2="470.336" gradientTransform="rotate(180 3517.576 720)"><stop offset="0" style="stop-color:#fff"/><stop offset="1" style="stop-color:#000"/></linearGradient><path d="M431.1 1344.7c-38.7-89.5-65.2-238.4-61.9-278.9 4.1-50.7-27.4-139-42.6-180.6s-7.1-78.1-7.1-104.5-28.4-42.6-40.6-75.1 11.2-54.8 11.2-83.2-8.1-90.3 0-90.3c9.1 50.7 38.6 53.8 39.6 92.3 1 38.6-19.3 56.8 15.2 87.2s26.4 40.6 35.5 98.4c9.1 57.8 53.1 65.5 45 119.6-9.4 63-1.1 121.8 29.9 165.2 37.7 52.8 24.2 143.3 44.1 204.6-.6 18.2 1.3 33 4.6 45.1h-72.9v.2z" style="clip-path:url(#SVGID_9_);fill:url(#SVGID_10_)"/><linearGradient id="SVGID_11_" gradientUnits="userSpaceOnUse" x1="6621.895" y1="507.232" x2="6730.825" y2="470.336" gradientTransform="rotate(180 3517.576 720)"><stop offset="0" style="stop-color:#246afc"/><stop offset="1" style="stop-color:#5f48dc"/></linearGradient><path d="M431.1 1344.7c-38.7-89.5-65.2-238.4-61.9-278.9 4.1-50.7-27.4-139-42.6-180.6s-7.1-78.1-7.1-104.5-28.4-42.6-40.6-75.1 11.2-54.8 11.2-83.2-8.1-90.3 0-90.3c9.1 50.7 38.6 53.8 39.6 92.3 1 38.6-19.3 56.8 15.2 87.2s26.4 40.6 35.5 98.4c9.1 57.8 53.1 65.5 45 119.6-9.4 63-1.1 121.8 29.9 165.2 37.7 52.8 24.2 143.3 44.1 204.6-.6 18.2 1.3 33 4.6 45.1h-72.9v.2z" style="opacity:.26;fill:url(#SVGID_11_);enable-background:new"/><path class="st0" d="M9.1 594c16.2-2 52.8 29.4 69 49.7s59.9 23.3 78.1 54.8c18.3 31.4 5.1 58.8 52.8 84.2s75.6 55.4 112.6 113.6c28.4 44.6 63.9 129.9 69 179.6 5.1 49.7 32.5 98.4 65.9 149.1 18.5 28.1 25.5 79.4 28.1 119.6H405c-20.2-26.6-53.8-56-61.1-81.1-10.1-34.5-4.1-90.3-26.4-123.8s-86.2-86.2-88.3-121.7c-2-35.5-41.6-76.1-73-95.4-31.4-19.3-34.5-79.1-52.8-107.5s-57.8-40.6-59.9-73c-2-32.5-7.1-57.8-25.4-75.1-18.2-17.2-25.3-70.9-9-73z"/><defs><path id="SVGID_12_" d="M1 1h1L1 2z"/></defs><defs><path id="SVGID_13_" d="M-1-1h-1l1-1z"/></defs><clipPath id="SVGID_14_"><use xlink:href="#SVGID_12_" style="overflow:visible"/></clipPath><clipPath id="SVGID_15_" style="clip-path:url(#SVGID_14_)"><use xlink:href="#SVGID_13_" style="overflow:visible"/></clipPath><linearGradient id="SVGID_16_" gradientUnits="userSpaceOnUse" x1="6780.598" y1="486.52" x2="6908.331" y2="443.256" gradientTransform="rotate(180 3517.576 720)"><stop offset="0" style="stop-color:#fff"/><stop offset="1" style="stop-color:#000"/></linearGradient><path d="m4.7 596.3 4.4-2.3c18.3 44.6 48.7 56.8 61.9 89.3s41.6 28.4 61.9 77.1c20.3 48.7 87.2 70 115.7 137 28.4 67 65.9 117.7 94.3 257.7 12.9 63.4 38.8 132.7 63.4 189.6H405c-20.2-26.6-53.8-56-61.1-81.1-10.1-34.5-4.1-90.3-26.4-123.8s-86.2-86.2-88.3-121.7c-2-35.5-41.6-76.1-73-95.4-31.4-19.3-34.5-79.1-52.8-107.5s-57.8-40.6-59.9-73c-2-32.5-7.1-57.8-25.4-75.1C1.9 651.6-5.5 607 4.7 596.3z" style="clip-path:url(#SVGID_15_);fill:url(#SVGID_16_)"/><path class="st10" d="m4.7 596.3 4.4-2.3c18.3 44.6 48.7 56.8 61.9 89.3s41.6 28.4 61.9 77.1c20.3 48.7 87.2 70 115.7 137 28.4 67 65.9 117.7 94.3 257.7 12.9 63.4 38.8 132.7 63.4 189.6H405c-20.2-26.6-53.8-56-61.1-81.1-10.1-34.5-4.1-90.3-26.4-123.8s-86.2-86.2-88.3-121.7c-2-35.5-41.6-76.1-73-95.4-31.4-19.3-34.5-79.1-52.8-107.5s-57.8-40.6-59.9-73c-2-32.5-7.1-57.8-25.4-75.1C1.9 651.6-5.5 607 4.7 596.3z"/><path class="st1" d="M354.7 1344.7c-17.2-36.6-29.1-78.7-29.1-104.4 0-42.6-3-99.4-18.3-120.7-15.2-21.3-20.3-46.7-16.2-64.9 4.1-18.3-4.1-43.6-9.1-67-5.1-23.3 1-38.6 1-38.6 7.1 15.2 13.2 16.2 27.4 35.5s8.1 28.4 28.4 58.8 38.6 61.9 45.7 99.4 35.5 77.1 59.9 112.6c17.1 25 28.1 56.1 34.6 89.2l-124.3.1z"/><defs><path id="SVGID_17_" d="M1 1h1L1 2z"/></defs><defs><path id="SVGID_18_" d="M-1-1h-1l1-1z"/></defs><clipPath id="SVGID_19_"><use xlink:href="#SVGID_17_" style="overflow:visible"/></clipPath><clipPath id="SVGID_20_" style="clip-path:url(#SVGID_19_)"><use xlink:href="#SVGID_18_" style="overflow:visible"/></clipPath><linearGradient id="SVGID_21_" gradientUnits="userSpaceOnUse" x1="6678.589" y1="292.833" x2="6741.487" y2="271.528" gradientTransform="rotate(180 3517.576 720)"><stop offset="0" style="stop-color:#fff"/><stop offset="1" style="stop-color:#000"/></linearGradient><path d="M354.7 1344.7c-17.2-36.6-29.1-78.7-29.1-104.4 0-42.6-3-99.4-18.3-120.7-15.2-21.3-20.3-46.7-16.2-64.9 4.1-18.3-4.1-43.6-9.1-67-5.1-23.3 1-38.6 1-38.6 5.7 50.4 24.7 45.7 28.1 75.4 3.4 29.8 3.4 50 18.3 70.3s13.5 46.7 33.8 95.4c20.3 48.7 57.5 94 64.2 127.1 1.4 6.7 2.9 16.3 4.6 27.3l-77.3.1z" style="clip-path:url(#SVGID_20_);fill:url(#SVGID_21_)"/><linearGradient id="SVGID_22_" gradientUnits="userSpaceOnUse" x1="6678.589" y1="292.833" x2="6741.487" y2="271.528" gradientTransform="rotate(180 3517.576 720)"><stop offset="0" style="stop-color:#0d1d7e"/><stop offset="1" style="stop-color:#afebf2"/></linearGradient><path d="M354.7 1344.7c-17.2-36.6-29.1-78.7-29.1-104.4 0-42.6-3-99.4-18.3-120.7-15.2-21.3-20.3-46.7-16.2-64.9 4.1-18.3-4.1-43.6-9.1-67-5.1-23.3 1-38.6 1-38.6 5.7 50.4 24.7 45.7 28.1 75.4 3.4 29.8 3.4 50 18.3 70.3s13.5 46.7 33.8 95.4c20.3 48.7 57.5 94 64.2 127.1 1.4 6.7 2.9 16.3 4.6 27.3l-77.3.1z" style="opacity:.14;fill:url(#SVGID_22_);enable-background:new"/><path class="st1" d="M139.9 979.5c8.1 18.3 34.5 30.4 74.1 47.7 39.6 17.2 58.7 29 94.3 85.2 19.3 30.4 42.6 79.1 58.8 149.1 7.4 32 17 61 25.1 83.1h-76.9v-6c0-48.7-68-103.5-84.2-146.1s-45.7-88.3-68-106.5c-22.3-18.3-51.7-67-54.8-95.4-3-28.4-15.2-49.7-15.2-49.7 16.4 5.2 38.7 20.4 46.8 38.6z"/><defs><path id="SVGID_23_" d="M1 1h1L1 2z"/></defs><defs><path id="SVGID_24_" d="M-1-1h-1l1-1z"/></defs><clipPath id="SVGID_25_"><use xlink:href="#SVGID_23_" style="overflow:visible"/></clipPath><clipPath id="SVGID_26_" style="clip-path:url(#SVGID_25_)"><use xlink:href="#SVGID_24_" style="overflow:visible"/></clipPath><linearGradient id="SVGID_27_" gradientUnits="userSpaceOnUse" x1="6767.874" y1="312.078" x2="6868.597" y2="277.962" gradientTransform="rotate(180 3517.576 720)"><stop offset="0" style="stop-color:#fff"/><stop offset="1" style="stop-color:#000"/></linearGradient><path d="M139.9 1022.1c16.2 30.4 42.6 16.2 89.3 58.8 46.7 42.6 24.3 46.7 65.9 110.6s48.7 89.3 55.8 138c.7 4.5 1.7 9.6 2.9 15.1h-38.4v-6c0-48.7-68-103.5-84.2-146.1s-45.7-88.3-68-106.5c-22.3-18.3-51.7-67-54.8-95.4-3-28.4-15.2-49.7-15.2-49.7 33.5 38.6 30.5 50.8 46.7 81.2z" style="clip-path:url(#SVGID_26_);fill:url(#SVGID_27_)"/><path class="st10" d="M139.9 1022.1c16.2 30.4 42.6 16.2 89.3 58.8 46.7 42.6 24.3 46.7 65.9 110.6s48.7 89.3 55.8 138c.7 4.5 1.7 9.6 2.9 15.1h-38.4v-6c0-48.7-68-103.5-84.2-146.1s-45.7-88.3-68-106.5c-22.3-18.3-51.7-67-54.8-95.4-3-28.4-15.2-49.7-15.2-49.7 33.5 38.6 30.5 50.8 46.7 81.2z"/><path class="st0" d="M1375.8 770.2c-16.1 30.5-8.1 42.4-4.8 75.5 3.2 33.1-21 39.7-32.3 67.6-11.3 27.8-3.2 41.1-6.5 75.5-3.2 34.4-16.1 37.1-27.4 68.9-11.3 31.8 0 75.5 8.1 135.1 5 36.9-6.7 105.2-16.3 151.9h-148.1c11.4-88.4 27.5-230.5 17.6-261.9-14.5-46.4 8.1-123.2 22.6-147s17.7-53 14.5-74.2 11.3-29.1 29-45 17.7-50.3 25.8-79.5c8.1-29.1 46.1-40.7 48.4-66.2 3.9-44.5 56.1-85 84.9-85 23.7 21.6-3.4 80.3-8.2 104.2-4.9 23.8 8.8 49.6-7.3 80.1z"/><defs><path id="SVGID_28_" d="M1 1h1L1 2z"/></defs><defs><path id="SVGID_29_" d="M-1-1h-1l1-1z"/></defs><clipPath id="SVGID_30_"><use xlink:href="#SVGID_28_" style="overflow:visible"/></clipPath><clipPath id="SVGID_31_" style="clip-path:url(#SVGID_30_)"><use xlink:href="#SVGID_29_" style="overflow:visible"/></clipPath><linearGradient id="SVGID_32_" gradientUnits="userSpaceOnUse" x1="5595.724" y1="507.039" x2="5928.439" y2="394.346" gradientTransform="rotate(180 3517.576 720)"><stop offset="0" style="stop-color:#fff"/><stop offset="1" style="stop-color:#000"/></linearGradient><path d="M1375.8 770.2c-16.1 30.5-8.1 42.4-4.8 75.5 3.2 33.1-21 39.7-32.3 67.6-11.3 27.8-3.2 41.1-6.5 75.5-3.2 34.4-16.1 37.1-27.4 68.9-11.3 31.8 0 75.5 8.1 135.1 5 36.9-6.7 105.2-16.3 151.9h-94.4c6.2-50.4 11.4-105.4 9.1-133.1-4.8-58.6-21.8-87.4-3.6-126.2 18.1-38.7 48.4-35.8 39.9-88.4-8.5-52.7-7.3-87.4 36.3-125.2 43.5-37.8 14.5-75.5 16.9-106.3s35.1-37.8 41.1-68.5c6-30.8 2.6-68.9 49.4-111.1 23.7 21.6-3.4 80.3-8.2 104.2-4.9 23.8 8.8 49.6-7.3 80.1z" style="clip-path:url(#SVGID_31_);fill:url(#SVGID_32_)"/><path class="st1" d="M1375.8 770.2c-16.1 30.5-8.1 42.4-4.8 75.5 3.2 33.1-21 39.7-32.3 67.6-11.3 27.8-3.2 41.1-6.5 75.5-3.2 34.4-16.1 37.1-27.4 68.9-11.3 31.8 0 75.5 8.1 135.1 5 36.9-6.7 105.2-16.3 151.9h-94.4c6.2-50.4 11.4-105.4 9.1-133.1-4.8-58.6-21.8-87.4-3.6-126.2 18.1-38.7 48.4-35.8 39.9-88.4-8.5-52.7-7.3-87.4 36.3-125.2 43.5-37.8 14.5-75.5 16.9-106.3s35.1-37.8 41.1-68.5c6-30.8 2.6-68.9 49.4-111.1 23.7 21.6-3.4 80.3-8.2 104.2-4.9 23.8 8.8 49.6-7.3 80.1z"/><path class="st1" d="M1196.1 1344.5c18-72.9 15.6-194.2 6.1-227.2-11.9-41.3.1-113.2 6.1-147.1 6-33.9-7-63.6-11.4-85.1s17.1-34.7 22-61.2c4.9-26.4-18.6-44.6-23.4-67.7-4.7-23.1-8.2-73.5-15.1-73.5 0 0-24.4 19.9-36.1 43-11.7 23.2.1 59.5-16.7 74.4-16.8 14.9-25.3 28.1-23.2 59.5 2.1 31.4-7.2 32.2-16.3 67.8-9.1 35.5 19.2 64.4 18.6 103.2-.7 38.8-20.3 35.6-37.5 103.3-12.2 48.1 16 153.4 33.4 210.6h93.5z"/><defs><path id="SVGID_33_" d="M1 1h1L1 2z"/></defs><defs><path id="SVGID_34_" d="M-1-1h-1l1-1z"/></defs><clipPath id="SVGID_35_"><use xlink:href="#SVGID_33_" style="overflow:visible"/></clipPath><clipPath id="SVGID_36_" style="clip-path:url(#SVGID_35_)"><use xlink:href="#SVGID_34_" style="overflow:visible"/></clipPath><linearGradient id="SVGID_37_" gradientUnits="userSpaceOnUse" x1="-454.126" y1="413.529" x2="-363.751" y2="382.918" gradientTransform="matrix(1.0252 -.0018 -.2011 -.9813 1691.267 1414.148)"><stop offset="0" style="stop-color:#fff"/><stop offset="1" style="stop-color:#000"/></linearGradient><path d="M1196.1 1344.5c18-72.9 15.6-194.2 6.1-227.2-11.9-41.3.1-113.2 6.1-147.1 6-33.9-7-63.6-11.4-85.1s17.1-34.7 22-61.2c4.9-26.4-18.6-44.6-23.4-67.7-4.7-23.1-8.2-73.5-15.1-73.5.7 41.3-23.8 43.8-18.2 75.2 5.6 31.4 25.9 46.2 1.6 71.1-24.3 24.8-15.7 33.1-13.8 80.2 1.9 47.1-34.3 53.4-18.3 97.4 18.5 51.2 21.2 99.2 2.1 134.6-23.2 43.1 3.3 116.7-3.3 166.6 3.5 14.8 4.4 26.9 3.6 36.8l62-.1z" style="clip-path:url(#SVGID_36_);fill:url(#SVGID_37_)"/><linearGradient id="SVGID_38_" gradientUnits="userSpaceOnUse" x1="-454.126" y1="413.529" x2="-363.751" y2="382.918" gradientTransform="matrix(1.0252 -.0018 -.2011 -.9813 1691.267 1414.148)"><stop offset="0" style="stop-color:#246afc"/><stop offset="1" style="stop-color:#5f48dc"/></linearGradient><path d="M1196.1 1344.5c18-72.9 15.6-194.2 6.1-227.2-11.9-41.3.1-113.2 6.1-147.1 6-33.9-7-63.6-11.4-85.1s17.1-34.7 22-61.2c4.9-26.4-18.6-44.6-23.4-67.7-4.7-23.1-8.2-73.5-15.1-73.5.7 41.3-23.8 43.8-18.2 75.2 5.6 31.4 25.9 46.2 1.6 71.1-24.3 24.8-15.7 33.1-13.8 80.2 1.9 47.1-34.3 53.4-18.3 97.4 18.5 51.2 21.2 99.2 2.1 134.6-23.2 43.1 3.3 116.7-3.3 166.6 3.5 14.8 4.4 26.9 3.6 36.8l62-.1z" style="opacity:.26;fill:url(#SVGID_38_);enable-background:new"/><path class="st1" d="M1538.3 721.9c-11.8-1.7-38.4 24.4-50.2 41.2-11.8 16.8-43.5 19.4-56.8 45.4-13.3 26.1-3.7 48.8-38.4 69.9-34.7 21-55 46-81.9 94.3-20.7 37-46.5 107.7-50.2 149-3.7 41.2-23.6 81.6-48 123.7-13.5 23.3-18.6 65.8-20.5 99.3h57.9c14.7-22.1 39.1-46.5 44.5-67.3 7.4-28.6 3-74.9 19.2-102.7 16.2-27.8 62.7-71.5 64.2-101s30.3-63.1 53.1-79.1c22.9-16 25.1-65.6 38.4-89.2 13.3-23.6 42.1-33.7 43.5-60.6 1.5-26.9 5.2-48 18.4-62.3 13.4-14.3 18.6-58.9 6.8-60.6z"/><defs><path id="SVGID_39_" d="M1 1h1L1 2z"/></defs><defs><path id="SVGID_40_" d="M-1-1h-1l1-1z"/></defs><clipPath id="SVGID_41_"><use xlink:href="#SVGID_39_" style="overflow:visible"/></clipPath><clipPath id="SVGID_42_" style="clip-path:url(#SVGID_41_)"><use xlink:href="#SVGID_40_" style="overflow:visible"/></clipPath><linearGradient id="SVGID_43_" gradientUnits="userSpaceOnUse" x1="-486.954" y1="425.399" x2="-349.809" y2="378.947" gradientTransform="matrix(.8768 0 0 -1 1757.379 1439.998)"><stop offset="0" style="stop-color:#fff"/><stop offset="1" style="stop-color:#000"/></linearGradient><path d="m1541.5 723.8-3.2-1.9c-13.3 37-35.4 47.1-45 74.1-9.6 26.9-30.3 23.6-45 64-14.8 40.4-73.2 55.4-84.1 113.6-12.9 68.5-80.1 59.7-77.6 188.1 1.1 56.1-38.8 61.3-58.3 110.1-13.3 33.4-9.2 72.8-9.2 72.8h31.3c14.7-22.1 39.1-46.4 44.5-67.2 7.4-28.6 3-74.9 19.2-102.7 16.2-27.8 62.7-71.5 64.2-101s30.3-63.1 53.1-79.1c22.9-16 25.1-65.6 38.4-89.2 13.3-23.6 42.1-33.7 43.5-60.6 1.5-26.9 5.2-48 18.4-62.3 11.8-12.8 17.2-49.8 9.8-58.7z" style="clip-path:url(#SVGID_42_);fill:url(#SVGID_43_)"/><linearGradient id="SVGID_44_" gradientUnits="userSpaceOnUse" x1="-486.954" y1="425.399" x2="-349.809" y2="378.947" gradientTransform="matrix(.8768 0 0 -1 1757.379 1439.998)"><stop offset="0" style="stop-color:#246afc"/><stop offset="1" style="stop-color:#5f48dc"/></linearGradient><path d="m1541.5 723.8-3.2-1.9c-13.3 37-35.4 47.1-45 74.1-9.6 26.9-30.3 23.6-45 64-14.8 40.4-73.2 55.4-84.1 113.6-12.9 68.5-80.1 59.7-77.6 188.1 1.1 56.1-38.8 61.3-58.3 110.1-13.3 33.4-9.2 72.8-9.2 72.8h31.3c14.7-22.1 39.1-46.4 44.5-67.2 7.4-28.6 3-74.9 19.2-102.7 16.2-27.8 62.7-71.5 64.2-101s30.3-63.1 53.1-79.1c22.9-16 25.1-65.6 38.4-89.2 13.3-23.6 42.1-33.7 43.5-60.6 1.5-26.9 5.2-48 18.4-62.3 11.8-12.8 17.2-49.8 9.8-58.7z" style="opacity:.26;fill:url(#SVGID_44_);enable-background:new"/><path class="st1" d="M1483 1344.7c15.5-30.4 26.2-65.3 26.2-86.6 0-35.4 2.7-82.5 16.4-100.2 13.7-17.7 18.2-38.7 14.6-53.9-3.6-15.2 3.6-36.2 8.2-55.5 4.6-19.4-.9-32-.9-32-6.4 12.6-11.9 13.5-24.6 29.5-12.8 16-7.3 23.6-25.5 48.8-18.2 25.3-34.7 51.3-41 82.5-6.4 31.1-31.9 64-53.8 93.4-15.4 20.7-25.3 46.5-31.1 74H1483z"/><defs><path id="SVGID_45_" d="M1 1h1L1 2z"/></defs><defs><path id="SVGID_46_" d="M-1-1h-1l1-1z"/></defs><clipPath id="SVGID_47_"><use xlink:href="#SVGID_45_" style="overflow:visible"/></clipPath><clipPath id="SVGID_48_" style="clip-path:url(#SVGID_47_)"><use xlink:href="#SVGID_46_" style="overflow:visible"/></clipPath><linearGradient id="SVGID_49_" gradientUnits="userSpaceOnUse" x1="283.368" y1="259.101" x2="335.549" y2="241.427" gradientTransform="matrix(1.0835 0 0 -1 1174.309 1439.997)"><stop offset="0" style="stop-color:#fff"/><stop offset="1" style="stop-color:#000"/></linearGradient><path d="M1483 1344.7c15.5-30.4 26.2-65.3 26.2-86.6 0-35.4 2.7-82.5 16.4-100.2 13.7-17.7 18.2-38.7 14.6-53.9-3.6-15.2 3.6-36.2 8.2-55.5 4.6-19.4-.9-32-.9-32-5.2 41.8-22.2 37.9-25.2 62.6s-3 41.5-16.4 58.4c-13.4 16.8-12.2 38.7-30.4 79.1-18.2 40.4-51.7 78-57.8 105.5-1.2 5.5-2.6 13.5-4.1 22.7l69.4-.1z" style="clip-path:url(#SVGID_48_);fill:url(#SVGID_49_)"/><linearGradient id="SVGID_50_" gradientUnits="userSpaceOnUse" x1="1413.6" y1="1180.65" x2="1550.235" y2="1180.65"><stop offset="0" style="stop-color:#246afc"/><stop offset="1" style="stop-color:#5f48dc"/></linearGradient><path d="M1483 1344.7c15.5-30.4 26.2-65.3 26.2-86.6 0-35.4 2.7-82.5 16.4-100.2 13.7-17.7 18.2-38.7 14.6-53.9-3.6-15.2 3.6-36.2 8.2-55.5 4.6-19.4-.9-32-.9-32-5.2 41.8-22.2 37.9-25.2 62.6s-3 41.5-16.4 58.4c-13.4 16.8-12.2 38.7-30.4 79.1-18.2 40.4-51.7 78-57.8 105.5-1.2 5.5-2.6 13.5-4.1 22.7l69.4-.1z" style="opacity:.26;fill:url(#SVGID_50_);enable-background:new"/><path d="M1039.5 1344.7c-15.3-43.1-25.8-92.5-25.8-122.8 0-50.1-2.7-116.9-16.2-142s-18-54.9-14.4-76.4-3.6-51.3-8.1-78.8c-4.5-27.4.9-45.3.9-45.3 6.3 17.9 11.7 19.1 24.3 41.8s7.2 33.4 25.2 69.2c18 35.8 34.2 72.8 40.5 116.9 6.3 44.2 31.5 90.7 53.1 132.5 15.2 29.4 24.9 65.9 30.7 104.9h-110.2z" style="fill:#292969"/><defs><path id="SVGID_51_" d="M1 1h1L1 2z"/></defs><defs><path id="SVGID_52_" d="M-1-1h-1l1-1z"/></defs><clipPath id="SVGID_53_"><use xlink:href="#SVGID_51_" style="overflow:visible"/></clipPath><clipPath id="SVGID_54_" style="clip-path:url(#SVGID_53_)"><use xlink:href="#SVGID_52_" style="overflow:visible"/></clipPath><linearGradient id="SVGID_55_" gradientUnits="userSpaceOnUse" x1="5744.925" y1="328.209" x2="5817.341" y2="303.681" gradientTransform="matrix(-1.0638 0 0 -1 7154.229 1439.995)"><stop offset="0" style="stop-color:#fff"/><stop offset="1" style="stop-color:#000"/></linearGradient><path d="M1039.5 1344.7c-15.3-43.1-25.8-92.5-25.8-122.8 0-50.1-2.7-116.9-16.2-142s-18-54.9-14.4-76.4-3.6-51.3-8.1-78.8c-4.5-27.4.9-45.3.9-45.3 5.1 59.3 21.9 53.7 24.9 88.7s3 58.9 16.2 82.7c13.2 23.9 12 54.9 30 112.2 18 57.3 51 110.6 56.9 149.6 1.2 7.8 2.6 19.1 4.1 32.1h-68.5z" style="clip-path:url(#SVGID_54_);fill:url(#SVGID_55_)"/><linearGradient id="SVGID_56_" gradientUnits="userSpaceOnUse" x1="5744.925" y1="328.209" x2="5817.341" y2="303.681" gradientTransform="matrix(-1.0638 0 0 -1 7154.229 1439.995)"><stop offset="0" style="stop-color:#0d1d7e"/><stop offset="1" style="stop-color:#afebf2"/></linearGradient><path d="M1039.5 1344.7c-15.3-43.1-25.8-92.5-25.8-122.8 0-50.1-2.7-116.9-16.2-142s-18-54.9-14.4-76.4-3.6-51.3-8.1-78.8c-4.5-27.4.9-45.3.9-45.3 5.1 59.3 21.9 53.7 24.9 88.7s3 58.9 16.2 82.7c13.2 23.9 12 54.9 30 112.2 18 57.3 51 110.6 56.9 149.6 1.2 7.8 2.6 19.1 4.1 32.1h-68.5z" style="opacity:.14;fill:url(#SVGID_56_);enable-background:new"/><path class="st0" d="M1475 1041.7c-6.5 15.1-27.7 25.2-59.5 39.6-31.8 14.3-47.2 24.1-75.8 70.7-15.5 25.2-34.2 65.6-47.3 123.7-6 26.6-13.6 50.6-20.2 69h61.8v-5c0-40.4 54.6-85.8 67.7-121.2 13-35.3 36.7-73.2 54.6-88.4 17.9-15.2 41.6-55.5 44-79.1s12.2-41.2 12.2-41.2c-13 4.2-31 16.8-37.5 31.9z"/><defs><path id="SVGID_57_" d="M1 1h1L1 2z"/></defs><defs><path id="SVGID_58_" d="M-1-1h-1l1-1z"/></defs><clipPath id="SVGID_59_"><use xlink:href="#SVGID_57_" style="overflow:visible"/></clipPath><clipPath id="SVGID_60_" style="clip-path:url(#SVGID_59_)"><use xlink:href="#SVGID_58_" style="overflow:visible"/></clipPath><linearGradient id="SVGID_61_" gradientUnits="userSpaceOnUse" x1="-684.712" y1="278.994" x2="-572.893" y2="241.12" gradientTransform="matrix(.8076 0 0 -1 1921.836 1439.998)"><stop offset="0" style="stop-color:#fff"/><stop offset="1" style="stop-color:#000"/></linearGradient><path d="M1475 1077.1c-13 25.3-34.2 13.5-71.8 48.8-37.5 35.4-19.6 38.7-53 91.7s-39.1 74.1-44.9 114.5c-.5 3.7-1.3 8-2.4 12.6h30.9v-5c0-40.4 54.6-85.8 67.7-121.2 13-35.3 36.7-73.2 54.6-88.4 17.9-15.2 41.6-55.5 44-79.1s12.2-41.2 12.2-41.2c-26.7 31.9-24.3 42-37.3 67.3z" style="clip-path:url(#SVGID_60_);fill:url(#SVGID_61_)"/><path class="st10" d="M1475 1077.1c-13 25.3-34.2 13.5-71.8 48.8-37.5 35.4-19.6 38.7-53 91.7s-39.1 74.1-44.9 114.5c-.5 3.7-1.3 8-2.4 12.6h30.9v-5c0-40.4 54.6-85.8 67.7-121.2 13-35.3 36.7-73.2 54.6-88.4 17.9-15.2 41.6-55.5 44-79.1s12.2-41.2 12.2-41.2c-26.7 31.9-24.3 42-37.3 67.3z"/><path class="st33" d="M1074.5 1329.4c-130.4-9.5-554.5 29.2-551.5-10.8 3.1-39.9-84.4-362.4-84.4-362.4S449 849.4 501.8 813c130.6-89.9 232.4-191.2 232.4-191.2-.8 47 20.8 134.6 43.8 219.1s52.2 159.7 59.9 159.7 47.6-152.1 66-218.1c15.7-56.4 22.6-129.6 24.2-149.8 30.4 32 105.8 87.6 162 117.1 62.5 32.8 80 71.6 80 71.6s-101.7 451.1-95.6 508z"/><path d="M928.2 632.7c-1.6 20.2-8.5 93.4-24.2 149.8-18.4 66.1-58.3 218.1-66 218.1s-36.9-75.2-59.9-159.7-44.6-172-43.8-219.1l182-2.9c2.3 3.4 6.4 8.1 11.9 13.8z" style="fill:#f9f9f9"/><defs><path id="SVGID_62_" d="M1 1h1L1 2z"/></defs><defs><path id="SVGID_63_" d="M-1-1h-1l1-1z"/></defs><clipPath id="SVGID_64_"><use xlink:href="#SVGID_62_" style="overflow:visible"/></clipPath><clipPath id="SVGID_65_" style="clip-path:url(#SVGID_64_)"><use xlink:href="#SVGID_63_" style="overflow:visible"/></clipPath><linearGradient id="SVGID_66_" gradientUnits="userSpaceOnUse" x1="-1110.185" y1="331.027" x2="-887.838" y2="199.693" gradientTransform="rotate(180 -183.088 720)"><stop offset="0" style="stop-color:#000"/><stop offset="1" style="stop-color:#fff"/></linearGradient><path d="M581 928.8c131.3 49.5 213.1 119.8 213.1 119.8l1.6 306.3-260.8-107L581 928.8z" style="clip-path:url(#SVGID_65_);fill:url(#SVGID_66_)"/><linearGradient id="SVGID_67_" gradientUnits="userSpaceOnUse" x1="-1110.185" y1="331.027" x2="-887.838" y2="199.693" gradientTransform="rotate(180 -183.088 720)"><stop offset="0" style="stop-color:#fff"/><stop offset="1" style="stop-color:#3d6acc"/></linearGradient><path d="M581 928.8c131.3 49.5 213.1 119.8 213.1 119.8l1.6 306.3-260.8-107L581 928.8z" style="opacity:.63;fill:url(#SVGID_67_);enable-background:new"/><defs><path id="SVGID_68_" d="M1 1h1L1 2z"/></defs><defs><path id="SVGID_69_" d="M-1-1h-1l1-1z"/></defs><clipPath id="SVGID_70_"><use xlink:href="#SVGID_68_" style="overflow:visible"/></clipPath><clipPath id="SVGID_71_" style="clip-path:url(#SVGID_70_)"><use xlink:href="#SVGID_69_" style="overflow:visible"/></clipPath><linearGradient id="SVGID_72_" gradientUnits="userSpaceOnUse" x1="830.45" y1="696.094" x2="830.45" y2="782.498" gradientTransform="matrix(1 0 0 -1 0 1440)"><stop offset="0" style="stop-color:#000"/><stop offset="1" style="stop-color:#fff"/></linearGradient><path d="m871.7 706.5-6.1-9.2-62.2-.8-6.9 8.1s-36.2-24.5-58.9-40C744.5 713 760.8 777.8 778 841c23 84.5 52.2 159.7 59.9 159.7s47.6-152.1 66-218.1c9.3-33.5 15.5-72.9 19.4-103.6l-51.6 27.5z" style="clip-path:url(#SVGID_71_);fill:url(#SVGID_72_)"/><linearGradient id="SVGID_73_" gradientUnits="userSpaceOnUse" x1="830.45" y1="696.094" x2="830.45" y2="782.498" gradientTransform="matrix(1 0 0 -1 0 1440)"><stop offset="0" style="stop-color:#fff"/><stop offset="1" style="stop-color:#3d6acc"/></linearGradient><path d="m871.7 706.5-6.1-9.2-62.2-.8-6.9 8.1s-36.2-24.5-58.9-40C744.5 713 760.8 777.8 778 841c23 84.5 52.2 159.7 59.9 159.7s47.6-152.1 66-218.1c9.3-33.5 15.5-72.9 19.4-103.6l-51.6 27.5z" style="opacity:.52;fill:url(#SVGID_73_);enable-background:new"/><path d="m834.5 651.2-31.1 45.3 15.7 26.9L793.6 894c19.1 60.6 38.3 106.7 44.3 106.7 4.7 0 21.2-56.1 37.7-115l-25.8-162.2 15.7-26.1-31-46.2z" style="fill:#e5328e"/><defs><path id="SVGID_74_" d="M1 1h1L1 2z"/></defs><defs><path id="SVGID_75_" d="M-1-1h-1l1-1z"/></defs><clipPath id="SVGID_76_"><use xlink:href="#SVGID_74_" style="overflow:visible"/></clipPath><clipPath id="SVGID_77_" style="clip-path:url(#SVGID_76_)"><use xlink:href="#SVGID_75_" style="overflow:visible"/></clipPath><linearGradient id="SVGID_78_" gradientUnits="userSpaceOnUse" x1="899.006" y1="311.122" x2="1145.92" y2="165.276" gradientTransform="matrix(1 0 0 -1 0 1440)"><stop offset="0" style="stop-color:#000"/><stop offset="1" style="stop-color:#fff"/></linearGradient><path d="M1088.8 902.8c-131.3 49.5-278.5 145.8-278.5 145.8l-3.5 364 266-99.9 22.5-140.4-6.5-269.5z" style="clip-path:url(#SVGID_77_);fill:url(#SVGID_78_)"/><linearGradient id="SVGID_79_" gradientUnits="userSpaceOnUse" x1="899.006" y1="311.122" x2="1145.92" y2="165.276" gradientTransform="matrix(1 0 0 -1 0 1440)"><stop offset="0" style="stop-color:#fff"/><stop offset="1" style="stop-color:#3d6acc"/></linearGradient><path d="M1088.8 902.8c-131.3 49.5-278.5 145.8-278.5 145.8l-3.5 364 266-99.9 22.5-140.4-6.5-269.5z" style="opacity:.63;fill:url(#SVGID_79_);enable-background:new"/><path class="st45" d="M928.2 632.7c-1.6 20.2-8.5 93.4-24.2 149.8-17 60.8-52.2 194.6-63.6 215.4 11.5-13.2 61.8-72.5 85.1-124.4 26.5-58.8 31.1-73.7 31.1-73.7L929 773.3l30-11.5s12.3-45.3 9.5-89.8c-16.3-15.3-30.5-29-40.3-39.3zM778.1 840.9c-23-84.5-44.6-172-43.8-219.1 0 0-18.2 15.3-43.9 37.4-5.6 41.1-2.2 91.1-2.2 91.1l34.6 17.3-23 27.6s20.7 71.4 50.7 118.7c26.1 41.2 73.3 76.5 84.9 84.9-10.5-12.2-36.4-81.2-57.3-157.9z"/><linearGradient id="SVGID_80_" gradientUnits="userSpaceOnUse" x1="736.3" y1="850.65" x2="915.4" y2="850.65" gradientTransform="matrix(1 0 0 -1 0 1440)"><stop offset="0" style="stop-color:#f1a17f"/><stop offset="1" style="stop-color:#e87979"/></linearGradient><path d="M740.5 516s-.7 81.4-4.2 106.7c0 0 66 40 92 40s87.1-42.1 87.1-42.1-2.8-64.6-.7-99.7L740.5 516z" style="fill:url(#SVGID_80_)"/><path class="st47" d="M763.9 317.3c-21.1 13.6-37 41.7-34.2 94.1s-5 59.4 0 83.8c5 24.3 23.9 57.1 31.8 80.5 8 23.4 20.6 41.2 72.1 41.7 54.8.5 57.6-20.6 70.7-48.7 13.1-28.1 20.1-45.9 27.1-62.7 6.7-16 5.1-51 4.7-75.8-.5-24.8 9.4-59-6.1-85.6-15.4-26.7-42.6-48.2-94.1-47.7-51.4.3-72 20.4-72 20.4z"/><g id="XMLID_6_"><path class="st48" d="M730.4 411.9c-18.3-10.8-39.3-5.2-44.9 21.3-5.6 26.5-.4 55.6 19.3 66.3s28 1.4 28 1.4l-2.4-89z"/><path class="st49" d="m732.1 475.1-1.1-40.6c-2.1-2.1-10.9-10.2-20.6-7.5-11.1 3.1-14.1 24.5-8.7 37.1 5.3 12.4 16.6 15.7 30.4 11z"/></g><path class="st48" d="M934.9 414.7c17.3-9.5 36.1-3 39.7 22.7 3.6 25.7-2.8 53.5-21.3 62.8s-25.6-.1-25.6-.1l7.2-85.4z"/><path class="st49" d="m929.8 475.3 3.3-39c2-1.9 10.5-9.3 19.2-6.2 10 3.6 11.5 24.3 5.9 36.1-5.5 11.7-16.1 14.3-28.4 9.1z"/><path class="st50" d="M770.1 553.8c-.2-.1-19.6-5.7-38.2-13.8-15.5-6.7-12.8-36-10.2-64.4.8-8.9 1.6-17.3 1.9-25.1l4.2.1c-.3 7.9-1.1 16.7-1.9 25.3-2.4 25.6-5.1 54.6 7.6 60.1 18.3 7.9 37.5 13.5 37.7 13.6l-1.1 4.2z"/><path class="st50" d="m731.6 463.7.2-21.7c-1.4-1.2-7.4-5.7-14.2-4.4-7.8 1.5-10.4 12.8-6.9 19.7 3.3 6.7 11.2 8.6 20.9 6.4z"/><path class="st51" d="M732.6 458.2c-4.7-.5-10.3-4.2-10.8-22-.3-12.2-14-30-14-30s-13.6-47.3-3.3-67.9c7.4-14.8 30.9-31.4 53.4-33.7 0 0 19.2-43.1 47.7-54.3 32.8-12.9 67.9 4.2 89.4 15s71.1 12.6 71.1 12.6-9 76.3-14.6 95.5c-5.6 19.2-5 32.3-7.4 46.3s-1.9 37.3-7.5 37.8-6.1.1-6.1.1 3.3-27.9 4.1-40c1.4-21.5-14.9-33.8-18.6-51.6-3.7-17.8-8.1-27-8.1-27s-38.6 13.1-69.5 9.8c-30.9-3.3-73.4-23.9-73.4-23.9s-4.5 41.1-22.8 64.2c-14.3 18.3-9.6 69.1-9.6 69.1z"/><path class="st51" d="M821 416.3c-28.7-4.6-51.7.1-67.5 3.8 9.1-22.9 54.3-28.4 67.5-3.8zM856.4 415.9c28.7-4.6 51.7.1 67.5 3.8-9.1-22.8-54.3-28.4-67.5-3.8z"/><path class="st52" d="M780.4 445.8c0 2.5 2 4.6 4.4 4.6s4.4-2 4.4-4.6c0-2.5-2-4.6-4.4-4.6-2.5 0-4.4 2.1-4.4 4.6zM886.7 445.8c0 2.5 2 4.6 4.4 4.6s4.4-2 4.4-4.6c0-2.5-2-4.6-4.4-4.6-2.4 0-4.4 2.1-4.4 4.6z"/><path d="M875.3 527c-.2 9.6-17 21.5-38 21.5s-37.5-12.2-38-21.5c-.7-13.5 16.8-5.6 37.7-5.6 21.1 0 38.7-7.9 38.3 5.6z" style="fill:#fff"/><circle class="st54" cx="771.2" cy="489.8" r="25.4"/><circle class="st54" cx="895.5" cy="489.9" r="25.4"/><linearGradient id="SVGID_81_" gradientUnits="userSpaceOnUse" x1="-8662.489" y1="8505.372" x2="-8662.489" y2="8478.439" gradientTransform="rotate(177.635 -13038.38 13983.476) scale(3.1708)"><stop offset="0" style="stop-color:#f1a17f"/><stop offset="1" style="stop-color:#e87979"/></linearGradient><path d="m842.7 414.4 28 73.3c1.8 5.1-2 10.5-7.5 10.4l-43.9-.4 13.4-83.8 10 .5z" style="fill:url(#SVGID_81_)"/><path d="M837.6 493.4c0-3.6-2.9-6.4-6.5-6.4s-6.4 2.9-6.4 6.5l12.9-.1z" style="opacity:.39;fill:#e87979;enable-background:new"/><circle class="st52" cx="781.1" cy="553" r="19.8"/><g id="XMLID_1_"><path class="st57" d="M719.1 923.3c-2.3 15.3-16.7 25.9-32 23.5-15.3-2.3-25.9-16.7-23.5-32 2.3-15.3 16.7-25.9 32-23.5 15.3 2.4 25.9 16.7 23.5 32z"/><circle cx="691.4" cy="919.1" style="fill:#a7f2cc" r="24.4"/><path class="st59" d="M945.1 1045.3c-8.7 0-20.5-.9-32.1-4.8-33.7-11.3-30.2-82-23.4-142.3.4-3.1.7-5.8.9-7.8.2-2.3 2.3-4 4.6-3.8s4 2.3 3.8 4.6c-.2 2.1-.5 4.8-.9 7.9-3.4 30.4-13.9 122.7 17.7 133.3 20 6.7 41.4 3.7 41.6 3.7 2.3-.3 4.5 1.3 4.8 3.6.3 2.3-1.3 4.4-3.6 4.8-.5.1-5.7.8-13.4.8zM981.9 1044.2c-2.2 0-4.1-1.7-4.2-4-.1-2.3 1.7-4.3 4-4.4 1.4-.1 2.9-.1 4.5-.2 23.8-.9 45.3-4 47.5-31.9 2.1-27.7-3.6-66.9-7.8-95.5-1.3-8.9-2.5-17.3-3.4-24.2-.3-2.3 1.4-4.4 3.7-4.7 2.3-.3 4.4 1.4 4.7 3.7.8 6.8 2 15.1 3.3 24 4.5 30.6 10.1 68.6 7.9 97.3-2.9 37.7-37.1 39-55.6 39.7-1.5.1-3 .1-4.4.2h-.2z"/><path class="st57" d="M691 923.9c-2.6 0-4.8-1.9-5.2-4.5-.1-.4-6-42.5-7.2-90.7-.1-3.7-.2-7.7-.3-11.9-1.7-52.2-4.7-149.3 49.3-206.7 2-2.1 5.3-2.2 7.5-.2 2.1 2 2.2 5.3.2 7.5-51 54.2-48.1 148.5-46.5 199.1.1 4.3.3 8.3.4 12 1.1 47.6 7 89 7.1 89.5.4 2.9-1.6 5.6-4.5 6-.3-.2-.6-.1-.8-.1zM962.5 796h-.3c-2.9-.2-5.1-2.6-5-5.6 0-.3 1.8-34.8 0-68.7l-.1-2.2c-1.8-33.4-3.5-65-39.7-97.2-2.2-1.9-2.4-5.3-.4-7.5 1.9-2.2 5.3-2.4 7.5-.4 39.5 35.2 41.3 70.4 43.2 104.5l.1 2.1c1.9 34.5 0 69.5 0 69.8-.2 3.1-2.5 5.2-5.3 5.2z"/><path class="st57" d="M894.6 900.6h-.2c-2.9-.1-5.2-2.6-5.1-5.5 1.2-28.8 7.6-54.9 18.1-73.5 13.3-23.5 33.1-35.8 57.4-35.4 25.4.4 45.2 18.8 57.2 53.3 8.7 25 10.4 49.6 10.5 50.6.2 2.9-2 5.4-4.9 5.6-2.9.2-5.4-2-5.6-4.9-.1-.9-6.6-93.3-57.3-94-20.5-.3-36.6 9.8-48.1 30.1-9.7 17.2-15.7 41.6-16.8 68.8 0 2.7-2.4 4.9-5.2 4.9z"/><path class="st60" d="M964.9 1038.2c.5 6.8-1.6 8.8-8.3 8.6-6-.2-9.3-.9-9.3-.9l-.4-9.8s7.5-2.9 11.5-2.3c3.5.6 6.3 1.8 6.5 4.4zM969.9 1037.9c-.1 6.9 2.1 8.7 8.9 8.1 5.9-.5 9.2-1.5 9.2-1.5l-.3-9.8s-7.7-2.4-11.6-1.6c-3.5.8-6.2 2.2-6.2 4.8z"/></g><path class="st33" d="M467.9 854c-23.1 45-71.8 247.8-81.1 318.2s-24.3 148.1 3.7 170.6c28.1 22.5 207.8 12.2 250.9 11.2 43.1-.9 104.8-4 104.8-4s4.7-106.5 1.9-106.5-74.9-16.8-110.5-23.4-97.3-19.7-97.3-19.7 16.4-60.9 26.2-104.6c10.5-47 18.3-108.8 18.3-108.8s3.3-30-37.9-75.8c-41.3-45.8-79-57.2-79-57.2zM1170.2 821.4c24.3 51.5 62.7 206.9 82.4 293 19.7 86.1 36.5 200.3 14 220s-87.1 24.3-124.5 26.2-87.1.7-87.1.7l13.3-132.7 47.5-9.4s-8.3-17.3-20-49.7c-6.3-17.5-5.5-65.6-7.2-92.6-4.2-68.1-6.6-114.7-2.8-150.2 3.9-35.6 84.4-105.3 84.4-105.3z"/><defs><path id="SVGID_82_" d="M1 1h1L1 2z"/></defs><defs><path id="SVGID_83_" d="M-1-1h-1l1-1z"/></defs><clipPath id="SVGID_84_"><use xlink:href="#SVGID_82_" style="overflow:visible"/></clipPath><clipPath id="SVGID_85_" style="clip-path:url(#SVGID_84_)"><use xlink:href="#SVGID_83_" style="overflow:visible"/></clipPath><linearGradient id="SVGID_86_" gradientUnits="userSpaceOnUse" x1="1153.104" y1="308.215" x2="1088.517" y2="208.993" gradientTransform="matrix(1 0 0 -1 0 1440)"><stop offset="0" style="stop-color:#000"/><stop offset="1" style="stop-color:#fff"/></linearGradient><path d="M1115.9 1219.2c31.8-8.4 77.7-17.8 98.3-10.3 0 0-4.7-56.2-38.4-123.6-33.7-67.4-64.6-59-64.6-59s-25.3 29.7-22.5 59.7-.9 67.6 6.6 86.4c7.5 18.7 20.6 46.8 20.6 46.8z" style="clip-path:url(#SVGID_85_);fill:url(#SVGID_86_)"/><linearGradient id="SVGID_87_" gradientUnits="userSpaceOnUse" x1="1153.104" y1="308.215" x2="1088.517" y2="208.993" gradientTransform="matrix(1 0 0 -1 0 1440)"><stop offset="0" style="stop-color:#fff"/><stop offset="1" style="stop-color:#3d6acc"/></linearGradient><path d="M1115.9 1219.2c31.8-8.4 77.7-17.8 98.3-10.3 0 0-4.7-56.2-38.4-123.6-33.7-67.4-64.6-59-64.6-59s-25.3 29.7-22.5 59.7-.9 67.6 6.6 86.4c7.5 18.7 20.6 46.8 20.6 46.8z" style="opacity:.63;fill:url(#SVGID_87_);enable-background:new"/><defs><path id="SVGID_88_" d="M1 1h1L1 2z"/></defs><defs><path id="SVGID_89_" d="M-1-1h-1l1-1z"/></defs><clipPath id="SVGID_90_"><use xlink:href="#SVGID_88_" style="overflow:visible"/></clipPath><clipPath id="SVGID_91_" style="clip-path:url(#SVGID_90_)"><use xlink:href="#SVGID_89_" style="overflow:visible"/></clipPath><linearGradient id="SVGID_92_" gradientUnits="userSpaceOnUse" x1="487.413" y1="291.971" x2="554.308" y2="235.441" gradientTransform="matrix(1 0 0 -1 0 1440)"><stop offset="0" style="stop-color:#000"/><stop offset="1" style="stop-color:#fff"/></linearGradient><path d="M541.5 1200.5c-43.1 8.4-109.9 55.2-124.8 73.9 0 0 3.7-71.1 28.1-159.1 24.3-88 72.1-117 94.5-107.6 22.5 9.4 34.9 48.9 34.9 48.9s-7.4 40-17.2 79c-9.8 38.5-15.5 64.9-15.5 64.9z" style="clip-path:url(#SVGID_91_);fill:url(#SVGID_92_)"/><linearGradient id="SVGID_93_" gradientUnits="userSpaceOnUse" x1="487.413" y1="291.971" x2="554.308" y2="235.441" gradientTransform="matrix(1 0 0 -1 0 1440)"><stop offset="0" style="stop-color:#fff"/><stop offset="1" style="stop-color:#3d6acc"/></linearGradient><path d="M541.5 1200.5c-43.1 8.4-109.9 55.2-124.8 73.9 0 0 3.7-71.1 28.1-159.1 24.3-88 72.1-117 94.5-107.6 22.5 9.4 34.9 48.9 34.9 48.9s-7.4 40-17.2 79c-9.8 38.5-15.5 64.9-15.5 64.9z" style="opacity:.63;fill:url(#SVGID_93_);enable-background:new"/><path class="st47" d="M747.6 1248.2c-16.8 16.8-18.7 44-16.8 59.9s10.5 33.5 10.5 33.5l42.8 8.4 35.1-94.8s-15-7.7-36.5-7.7c-21.6 0-35.1.7-35.1.7z"/><path class="st57" d="M823.9 1277.8c-2.1 0-4-1.2-4.9-3.2l-48.7-115.1c-1.1-2.7.1-5.8 2.8-6.9s5.8.1 6.9 2.8l48.7 115.1c1.1 2.7-.1 5.8-2.8 6.9-.7.3-1.4.4-2 .4zM899.7 1187.5c0-.7 1.2-3.7 2.5-6.7 1.6-3.7 5-6.4 9-6.9l63.8-7.8c3.4-.4 6.6 1.8 7.4 5.1l1.9 7.7-84.6 8.6z"/><path class="st59" d="m847.2 1192.6 219.1-28.3c6.1-.8 10.8 5.2 8.7 10.9l-77.1 208.4c-5 13.4-16.9 23.1-31.1 25l-222.4 30.7c-6.1.8-11-5.2-8.8-11l80.2-211.1c5.1-13.3 17.2-22.8 31.4-24.6z"/><path class="st57" d="m997.8 1383.7 77.1-208.4c.8-2.1.6-4.3-.2-6.1-1.3-.6-2.8-.8-4.3-.6l-219.1 28.3c-14.2 1.8-26.3 11.3-31.4 24.7l-80.2 211.1c-.8 2.1-.7 4.3.2 6.2 1.3.6 2.8.8 4.4.6l222.4-30.7c14.2-2.1 26.2-11.7 31.1-25.1z"/><path class="st47" d="M1056.5 1225.8s18.3 7.7 22.5 16.1 7.7 26 3.5 56.2c-4.6 32.9-12.6 46.3-12.6 46.3s-51.2 14-87.8 8.4c-36.5-5.6-73.7-15.4-73.7-24.6 0-9.1 27.4-7 27.4-7s-34.4-.7-34.4-13.3c0-12.6 38.6-7.7 38.6-7.7s-48.4-3.5-47-17.6c1.4-14 50.5-5.6 50.5-5.6s-42.8-4.2-40-16.8c2.8-12.6 28.8-6.3 47-4.9 18.3 1.4 77.2 4.9 85.6 1.4 8.4-3.6 20.4-30.9 20.4-30.9z"/></svg>