<svg version="1.1" id="Layer_1" xmlns="http://www.w3.org/2000/svg" x="0" y="0" viewBox="0 0 195.1 163.6" style="enable-background:new 0 0 195.1 163.6" xml:space="preserve"><style>.st15,.st16,.st24,.st40{opacity:.1;fill:#8bbcff;enable-background:new}.st16,.st24,.st40{opacity:.25}.st24,.st40{fill:#fff}.st40{fill:none;stroke:#41b883;stroke-linecap:round;stroke-linejoin:round;stroke-miterlimit:10}</style><linearGradient id="SVGID_1_" gradientUnits="userSpaceOnUse" x1="0" y1="94.65" x2="195" y2="94.65" gradientTransform="matrix(1 0 0 -1 0 166)"><stop offset="0" style="stop-color:#fff"/><stop offset="1" style="stop-color:#d8e0ff"/></linearGradient><path d="M0 0v142.7c17.6-10.7 35.8-21 56.6-25 8.8-1.7 18.1-2.3 27.9-1.2 5.2.5 10.5 1.5 16 3 35.9 9.8 58.5 28.5 94.5 11.7V0H0z" style="fill:url(#SVGID_1_)"/><path d="M195.1 15.9v116.3c-36.1 16.8-58.7-1.9-94.6-11.7-5.5-1.5-10.8-2.5-16-3-9.8-1.1-19.1-.5-27.9 1.2-20.8 4-39.1 14.4-56.7 25.1V15.9c0-4.6 1.9-8.8 5-11.7C7.8 1.4 11.7-.2 16-.2h163c8.9 0 16.1 7.3 16.1 16.1z" style="fill:none"/><linearGradient id="SVGID_2_" gradientUnits="userSpaceOnUse" x1="42.489" y1="190.411" x2="90.965" y2="473.422" gradientTransform="translate(0 -334)"><stop offset="0" style="stop-color:#fff"/><stop offset="1" style="stop-color:#d8e0ff"/></linearGradient><path d="M109.2-.2c0 23-18.7 41.7-41.7 41.7S25.8 22.8 25.8-.2H16c-4.2 0-8.1 1.7-11 4.5 2.3 32.5 29.4 58.3 62.5 58.3 34.6 0 62.7-28.1 62.7-62.7l-21-.1z" style="fill:url(#SVGID_2_)"/><linearGradient id="SVGID_3_" gradientUnits="userSpaceOnUse" x1="57.779" y1="384.534" x2="73.105" y2="480.772" gradientTransform="translate(0 -334)"><stop offset="0" style="stop-color:#ff7570"/><stop offset="1" style="stop-color:#fbb"/></linearGradient><path d="M84.6 117.4c-9.8-1.1-19.1-.5-27.9 1.2-2.1-5.9-4.9-13.8-6.6-17.3-.2-.5-.4-.9-.6-1.2l2-3.6 5.3-9.6 3.8 2.6 1.5 1.1 5.4 3.8s.4.5 1 1.3c1.6 2.1 4.8 6.4 8 10.8 3.3 4.4 6.5 8.8 8.1 10.9z" style="fill:url(#SVGID_3_)"/><linearGradient id="SVGID_4_" gradientUnits="userSpaceOnUse" x1="87.496" y1="437.86" x2="161.991" y2="248.594" gradientTransform="translate(0 -334)"><stop offset="0" style="stop-color:#fff"/><stop offset="1" style="stop-color:#ddc4ff"/></linearGradient><path d="M147.2 44.3v58.1c0 2.3-1.9 4.2-4.2 4.2H55.7c-2.3 0-4.2-1.9-4.2-4.2V44.3h95.7z" style="fill:url(#SVGID_4_)"/><linearGradient id="SVGID_5_" gradientUnits="userSpaceOnUse" x1="92.605" y1="400.658" x2="101.159" y2="367.153" gradientTransform="translate(0 -334)"><stop offset="0" style="stop-color:#ff227d"/><stop offset="1" style="stop-color:#ff967d"/></linearGradient><path d="M147.2 36.7v7.6H51.5v-7.6c0-2.3 1.9-4.2 4.2-4.2H143c2.3 0 4.2 1.8 4.2 4.2z" style="fill:url(#SVGID_5_)"/><linearGradient id="SVGID_6_" gradientUnits="userSpaceOnUse" x1="67.33" y1="343.213" x2="67.567" y2="375.53" gradientTransform="translate(0 -334)"><stop offset="0" style="stop-color:#2a1f31"/><stop offset="1" style="stop-color:#6a517f"/></linearGradient><path d="M67.5 27.6c-1 0-1.8.8-1.8 1.8v5.9c0 1 .8 1.8 1.8 1.8s1.8-.8 1.8-1.8v-5.9c0-1-.8-1.8-1.8-1.8z" style="fill:url(#SVGID_6_)"/><linearGradient id="SVGID_7_" gradientUnits="userSpaceOnUse" x1="78.029" y1="343.134" x2="78.267" y2="375.451" gradientTransform="translate(0 -334)"><stop offset="0" style="stop-color:#2a1f31"/><stop offset="1" style="stop-color:#6a517f"/></linearGradient><path d="M78.2 27.6c-1 0-1.8.8-1.8 1.8v5.9c0 1 .8 1.8 1.8 1.8s1.8-.8 1.8-1.8v-5.9c-.1-1-.9-1.8-1.8-1.8z" style="fill:url(#SVGID_7_)"/><linearGradient id="SVGID_8_" gradientUnits="userSpaceOnUse" x1="88.629" y1="343.056" x2="88.866" y2="375.373" gradientTransform="translate(0 -334)"><stop offset="0" style="stop-color:#2a1f31"/><stop offset="1" style="stop-color:#6a517f"/></linearGradient><path d="M88.8 27.6c-1 0-1.8.8-1.8 1.8v5.9c0 1 .8 1.8 1.8 1.8s1.8-.8 1.8-1.8v-5.9c-.1-1-.9-1.8-1.8-1.8z" style="fill:url(#SVGID_8_)"/><linearGradient id="SVGID_9_" gradientUnits="userSpaceOnUse" x1="99.228" y1="342.978" x2="99.466" y2="375.295" gradientTransform="translate(0 -334)"><stop offset="0" style="stop-color:#2a1f31"/><stop offset="1" style="stop-color:#6a517f"/></linearGradient><path d="M99.4 27.6c-1 0-1.8.8-1.8 1.8v5.9c0 1 .8 1.8 1.8 1.8s1.8-.8 1.8-1.8v-5.9c-.1-1-.9-1.8-1.8-1.8z" style="fill:url(#SVGID_9_)"/><linearGradient id="SVGID_10_" gradientUnits="userSpaceOnUse" x1="109.828" y1="342.9" x2="110.065" y2="375.217" gradientTransform="translate(0 -334)"><stop offset="0" style="stop-color:#2a1f31"/><stop offset="1" style="stop-color:#6a517f"/></linearGradient><path d="M110 27.6c-1 0-1.8.8-1.8 1.8v5.9c0 1 .8 1.8 1.8 1.8s1.8-.8 1.8-1.8v-5.9c-.1-1-.9-1.8-1.8-1.8z" style="fill:url(#SVGID_10_)"/><linearGradient id="SVGID_11_" gradientUnits="userSpaceOnUse" x1="120.427" y1="342.822" x2="120.665" y2="375.139" gradientTransform="translate(0 -334)"><stop offset="0" style="stop-color:#2a1f31"/><stop offset="1" style="stop-color:#6a517f"/></linearGradient><path d="M120.6 27.6c-1 0-1.8.8-1.8 1.8v5.9c0 1 .8 1.8 1.8 1.8s1.8-.8 1.8-1.8v-5.9c0-1-.8-1.8-1.8-1.8z" style="fill:url(#SVGID_11_)"/><linearGradient id="SVGID_12_" gradientUnits="userSpaceOnUse" x1="131.026" y1="342.745" x2="131.264" y2="375.061" gradientTransform="translate(0 -334)"><stop offset="0" style="stop-color:#2a1f31"/><stop offset="1" style="stop-color:#6a517f"/></linearGradient><path d="M131.2 27.6c-1 0-1.8.8-1.8 1.8v5.9c0 1 .8 1.8 1.8 1.8s1.8-.8 1.8-1.8v-5.9c0-1-.8-1.8-1.8-1.8z" style="fill:url(#SVGID_12_)"/><linearGradient id="SVGID_13_" gradientUnits="userSpaceOnUse" x1="98.076" y1="360.861" x2="72.947" y2="382.247" gradientTransform="translate(0 -334)"><stop offset="0" style="stop-color:#2a1f31"/><stop offset="1" style="stop-color:#6a517f"/></linearGradient><path d="M79.2 49.4H61.4c-.6 0-1.1.5-1.1 1.1 0 .6.5 1.1 1.1 1.1h17.8c.6 0 1.1-.5 1.1-1.1 0-.6-.5-1.1-1.1-1.1z" style="opacity:.45;fill:url(#SVGID_13_);enable-background:new"/><linearGradient id="SVGID_14_" gradientUnits="userSpaceOnUse" x1="130.601" y1="338.386" x2="129.71" y2="372.604" gradientTransform="translate(0 -334)"><stop offset="0" style="stop-color:#2a1f31"/><stop offset="1" style="stop-color:#6a517f"/></linearGradient><path d="M138.3 49.4h-17.8c-.6 0-1.1.5-1.1 1.1 0 .6.5 1.1 1.1 1.1h17.8c.6 0 1.1-.5 1.1-1.1 0-.6-.5-1.1-1.1-1.1z" style="opacity:.45;fill:url(#SVGID_14_);enable-background:new"/><path class="st15" d="M66.8 64.3h-5.5c-1 0-1.8-.8-1.8-1.8v-4.1c0-1 .8-1.8 1.8-1.8h5.5c1 0 1.8.8 1.8 1.8v4.1c-.1 1-.9 1.8-1.8 1.8zM78.5 64.3H73c-1 0-1.8-.8-1.8-1.8v-4.1c0-1 .8-1.8 1.8-1.8h5.5c1 0 1.8.8 1.8 1.8v4.1c0 1-.8 1.8-1.8 1.8z"/><path class="st16" d="M90.3 64.3h-5.5c-1 0-1.8-.8-1.8-1.8v-4.1c0-1 .8-1.8 1.8-1.8h5.5c1 0 1.8.8 1.8 1.8v4.1c0 1-.8 1.8-1.8 1.8zM102.1 64.3h-5.5c-1 0-1.8-.8-1.8-1.8v-4.1c0-1 .8-1.8 1.8-1.8h5.5c1 0 1.8.8 1.8 1.8v4.1c-.1 1-.8 1.8-1.8 1.8zM113.9 64.3h-5.5c-1 0-1.8-.8-1.8-1.8v-4.1c0-1 .8-1.8 1.8-1.8h5.5c1 0 1.8.8 1.8 1.8v4.1c-.1 1-.9 1.8-1.8 1.8zM125.6 64.3h-5.5c-1 0-1.8-.8-1.8-1.8v-4.1c0-1 .8-1.8 1.8-1.8h5.5c1 0 1.8.8 1.8 1.8v4.1c0 1-.8 1.8-1.8 1.8zM137.4 64.3h-5.5c-1 0-1.8-.8-1.8-1.8v-4.1c0-1 .8-1.8 1.8-1.8h5.5c1 0 1.8.8 1.8 1.8v4.1c0 1-.8 1.8-1.8 1.8zM66.8 75.6h-5.5c-1 0-1.8-.8-1.8-1.8v-4.1c0-1 .8-1.8 1.8-1.8h5.5c1 0 1.8.8 1.8 1.8v4.1c-.1 1-.9 1.8-1.8 1.8zM78.5 75.6H73c-1 0-1.8-.8-1.8-1.8v-4.1c0-1 .8-1.8 1.8-1.8h5.5c1 0 1.8.8 1.8 1.8v4.1c0 1-.8 1.8-1.8 1.8zM90.3 75.6h-5.5c-1 0-1.8-.8-1.8-1.8v-4.1c0-1 .8-1.8 1.8-1.8h5.5c1 0 1.8.8 1.8 1.8v4.1c0 1-.8 1.8-1.8 1.8zM102.1 75.6h-5.5c-1 0-1.8-.8-1.8-1.8v-4.1c0-1 .8-1.8 1.8-1.8h5.5c1 0 1.8.8 1.8 1.8v4.1c-.1 1-.8 1.8-1.8 1.8zM113.9 75.6h-5.5c-1 0-1.8-.8-1.8-1.8v-4.1c0-1 .8-1.8 1.8-1.8h5.5c1 0 1.8.8 1.8 1.8v4.1c-.1 1-.9 1.8-1.8 1.8zM125.6 75.6h-5.5c-1 0-1.8-.8-1.8-1.8v-4.1c0-1 .8-1.8 1.8-1.8h5.5c1 0 1.8.8 1.8 1.8v4.1c0 1-.8 1.8-1.8 1.8zM137.4 75.6h-5.5c-1 0-1.8-.8-1.8-1.8v-4.1c0-1 .8-1.8 1.8-1.8h5.5c1 0 1.8.8 1.8 1.8v4.1c0 1-.8 1.8-1.8 1.8zM66.8 86.9h-5.5c-1 0-1.8-.8-1.8-1.8V81c0-1 .8-1.8 1.8-1.8h5.5c1 0 1.8.8 1.8 1.8v4.1c-.1 1.1-.9 1.8-1.8 1.8zM78.5 86.9H73c-1 0-1.8-.8-1.8-1.8V81c0-1 .8-1.8 1.8-1.8h5.5c1 0 1.8.8 1.8 1.8v4.1c0 1.1-.8 1.8-1.8 1.8zM90.3 86.9h-5.5c-1 0-1.8-.8-1.8-1.8V81c0-1 .8-1.8 1.8-1.8h5.5c1 0 1.8.8 1.8 1.8v4.1c0 1.1-.8 1.8-1.8 1.8zM102.1 86.9h-5.5c-1 0-1.8-.8-1.8-1.8V81c0-1 .8-1.8 1.8-1.8h5.5c1 0 1.8.8 1.8 1.8v4.1c-.1 1.1-.8 1.8-1.8 1.8zM113.9 86.9h-5.5c-1 0-1.8-.8-1.8-1.8V81c0-1 .8-1.8 1.8-1.8h5.5c1 0 1.8.8 1.8 1.8v4.1c-.1 1.1-.9 1.8-1.8 1.8zM125.6 86.9h-5.5c-1 0-1.8-.8-1.8-1.8V81c0-1 .8-1.8 1.8-1.8h5.5c1 0 1.8.8 1.8 1.8v4.1c0 1.1-.8 1.8-1.8 1.8zM137.4 86.9h-5.5c-1 0-1.8-.8-1.8-1.8V81c0-1 .8-1.8 1.8-1.8h5.5c1 0 1.8.8 1.8 1.8v4.1c0 1.1-.8 1.8-1.8 1.8zM66.8 98.3h-5.5c-1 0-1.8-.8-1.8-1.8v-4.1c0-1 .8-1.8 1.8-1.8h5.5c1 0 1.8.8 1.8 1.8v4.1c-.1 1-.9 1.8-1.8 1.8zM78.5 98.3H73c-1 0-1.8-.8-1.8-1.8v-4.1c0-1 .8-1.8 1.8-1.8h5.5c1 0 1.8.8 1.8 1.8v4.1c0 1-.8 1.8-1.8 1.8zM90.3 98.3h-5.5c-1 0-1.8-.8-1.8-1.8v-4.1c0-1 .8-1.8 1.8-1.8h5.5c1 0 1.8.8 1.8 1.8v4.1c0 1-.8 1.8-1.8 1.8zM102.1 98.3h-5.5c-1 0-1.8-.8-1.8-1.8v-4.1c0-1 .8-1.8 1.8-1.8h5.5c1 0 1.8.8 1.8 1.8v4.1c-.1 1-.8 1.8-1.8 1.8zM113.9 98.3h-5.5c-1 0-1.8-.8-1.8-1.8v-4.1c0-1 .8-1.8 1.8-1.8h5.5c1 0 1.8.8 1.8 1.8v4.1c-.1 1-.9 1.8-1.8 1.8zM125.6 98.3h-5.5c-1 0-1.8-.8-1.8-1.8v-4.1c0-1 .8-1.8 1.8-1.8h5.5c1 0 1.8.8 1.8 1.8v4.1c0 1-.8 1.8-1.8 1.8z"/><path class="st15" d="M137.4 98.3h-5.5c-1 0-1.8-.8-1.8-1.8v-4.1c0-1 .8-1.8 1.8-1.8h5.5c1 0 1.8.8 1.8 1.8v4.1c0 1-.8 1.8-1.8 1.8z"/><linearGradient id="SVGID_15_" gradientUnits="userSpaceOnUse" x1="105.168" y1="417.1" x2="117.094" y2="417.1" gradientTransform="translate(0 -334)"><stop offset="0" style="stop-color:#ff6d79"/><stop offset="1" style="stop-color:#ff8b88"/></linearGradient><circle cx="111.1" cy="83.1" r="5.5" style="fill:none;stroke:url(#SVGID_15_);stroke-linecap:round;stroke-linejoin:round;stroke-miterlimit:10"/><linearGradient id="SVGID_16_" gradientUnits="userSpaceOnUse" x1="108.049" y1="417" x2="114.262" y2="417" gradientTransform="translate(0 -334)"><stop offset="0" style="stop-color:#ff6d79"/><stop offset="1" style="stop-color:#ff8b88"/></linearGradient><path style="fill:none;stroke:url(#SVGID_16_);stroke-linecap:round;stroke-linejoin:round;stroke-miterlimit:10" d="m108.5 82.9 1.8 1.8 3.5-3.4"/><linearGradient id="SVGID_17_" gradientUnits="userSpaceOnUse" x1="4.008" y1="511.941" x2="51.764" y2="411.084" gradientTransform="translate(0 -334)"><stop offset="0" style="stop-color:#ff7570"/><stop offset="1" style="stop-color:#fbb"/></linearGradient><path d="M56.8 92.8c-2.8 2.2-5.9 9.5-8.3 9.3-2.4-.2-3.6-3.8-4.3-4.8s-3.8-4.4-4-6.7c-.3-2.2 0-2.8 0-2.8s-3.1-1.4-3.5-4c-.3-2.6 1-4.5 1-4.5s-2-1.5-1.6-3.7 9-7.6 9-7.6c1.6-1.7 5-3.1 8.2-3.7 1.3-.3 2.6-.4 3.6-.4.9 0 1.6.2 2.1.4.3.2.5.4.7.6.7 1.6-2.6 4.5-2.9 4.8h.1c.2-.1.6-.4 1.1-.6h.1c1.1-.5 2.6-.9 3.6-.3.4.2.7.5.9 1 1.2 2.4-2.8 5.7-4.3 6.8l-.1.1c.1-.1.3-.2.4-.3.1 0 .2-.1.3-.2.2-.1.5-.3.8-.5 1.1-.6 2.5-1.2 3.5-1.1.2 0 .3 0 .5.1.4.1.8.4 1 .9.9 2.7-5.7 8.3-6.5 9 .1 0 .1-.1.3-.2h.1c.4-.3 1.1-.7 1.8-1 1.2-.6 2.7-1.2 3.6-1 .4.1.7.3.8.7.7 2.4-5.1 7.5-8 9.7z" style="fill:url(#SVGID_17_)"/><linearGradient id="SVGID_18_" gradientUnits="userSpaceOnUse" x1="56.162" y1="405.909" x2="57.385" y2="403.327" gradientTransform="translate(0 -334)"><stop offset="0" style="stop-color:#ff7570"/><stop offset="1" style="stop-color:#fbb"/></linearGradient><path d="M56.8 69.7c.2-.1.6-.4 1.1-.6l-1.1.6z" style="fill:url(#SVGID_18_)"/><linearGradient id="SVGID_19_" gradientUnits="userSpaceOnUse" x1="81.337" y1="427.517" x2="41.773" y2="397.101" gradientTransform="translate(0 -334)"><stop offset="0" style="stop-color:#ff7570"/><stop offset="1" style="stop-color:#fbb"/></linearGradient><path d="M56.8 69.8c-6.5 3.3-11.9 6.8-12.8 6.9s-1.6-1.4 1.5-2.1c3.1-.8 11.7-5.4 11.9-8.5.1-1-.1-1.7-.4-2.2.9 0 1.6.2 2.1.4 2.4 1.3-1.9 5.1-2.3 5.5z" style="fill:url(#SVGID_19_)"/><linearGradient id="SVGID_20_" gradientUnits="userSpaceOnUse" x1="83.53" y1="434.077" x2="43.934" y2="403.637" gradientTransform="translate(0 -334)"><stop offset="0" style="stop-color:#ff7570"/><stop offset="1" style="stop-color:#fbb"/></linearGradient><path d="M58.3 76.6s-.1 0 0 0c-2.2 1.2-7.7 4.4-9.7 6-2.1 1.7-4.5 2.1-4.3 1.4.2-.8 1.9-2.4 5.5-3.7 3.6-1.3 10.6-6.3 11.5-7.8.6-.9.8-2.6.3-3.5.4.2.7.5.9 1 1.2 2.2-2.8 5.5-4.2 6.6z" style="fill:url(#SVGID_20_)"/><linearGradient id="SVGID_21_" gradientUnits="userSpaceOnUse" x1="80.053" y1="435.149" x2="48.833" y2="411.148" gradientTransform="translate(0 -334)"><stop offset="0" style="stop-color:#ff7570"/><stop offset="1" style="stop-color:#fbb"/></linearGradient><path d="M58.2 84.7c.1 0 .1-.1.3-.2-1.7 1.2-3.4 2.3-4.3 2.7-2 1-3.5 3.5-4.9 3.7s-1.9-.3-.5-2 7.7-4.1 9.6-5.4 4.5-4.2 5.4-5.6c.7-1.2.7-2.3.1-3.2.4.1.8.4 1 .9.7 2.7-5.9 8.3-6.7 9.1z" style="fill:url(#SVGID_21_)"/><path class="st24" d="M59.7 64.9c-.3 1.9-4.4 2.7-4.8 2.7-.5 0-1.4-1.6-1.6-3.4 1.3-.3 2.6-.4 3.6-.4.9 0 1.6.2 2.1.4.4.3.6.5.7.7zM59 73.1c-1.2.3-2.1-2-2.2-3.4.2-.1.6-.4 1.1-.6h.1c1.1-.5 2.6-.9 3.6-.3.5 2.2-1.5 4-2.6 4.3zM61.5 78.8c-1.2.3-2.1-2.3-2-2.8 0-.1.1-.2.1-.2 1.1-.6 2.5-1.2 3.5-1.1 1.2 1.9-.4 3.8-1.6 4.1zM64.1 84c-.4 1.3-1.9 1.9-2.3 1.8-.4-.1-1.4-1.8-1.5-2.2v-.2c1.2-.6 2.7-1.2 3.6-1 .3.3.5.8.2 1.6z"/><linearGradient id="SVGID_22_" gradientUnits="userSpaceOnUse" x1="313.54" y1="229.608" x2="313.005" y2="251.796" gradientTransform="rotate(27.964 537.109 -143.266)"><stop offset="0" style="stop-color:#ffe392"/><stop offset="1" style="stop-color:#ff8b88"/></linearGradient><path d="m167.9 87.5-2.7 5.2-10.4-5.5 2.7-5.2c1.5-2.9 5.1-3.9 7.9-2.4.6.3 1.1.7 1.6 1.2 1.7 1.8 2.1 4.4.9 6.7z" style="fill:url(#SVGID_22_)"/><linearGradient id="SVGID_23_" gradientUnits="userSpaceOnUse" x1="301.496" y1="229.312" x2="300.962" y2="251.502" gradientTransform="rotate(27.964 537.109 -143.266)"><stop offset="0" style="stop-color:#ffe392"/><stop offset="1" style="stop-color:#ff8b88"/></linearGradient><path d="m154 84.8-4 .5-3.2.4-.5-3.6c-.3-2 1.1-3.8 3.1-4 1.5-.2 2.9.6 3.6 1.8.2.4.4.8.4 1.2l.6 3.7z" style="fill:url(#SVGID_23_)"/><linearGradient id="SVGID_24_" gradientUnits="userSpaceOnUse" x1="325.512" y1="229.888" x2="324.978" y2="252.083" gradientTransform="rotate(27.964 537.109 -143.266)"><stop offset="0" style="stop-color:#ffe392"/><stop offset="1" style="stop-color:#ff8b88"/></linearGradient><path d="m174 96.8-1.2.6-2.1 1-2-4.1-1.2-2.3 3.2-1.6c1.7-.8 3.8-.2 4.7 1.5l.1.1c1 1.8.3 4-1.5 4.8z" style="fill:url(#SVGID_24_)"/><linearGradient id="SVGID_25_" gradientUnits="userSpaceOnUse" x1="313.796" y1="219.457" x2="317.182" y2="256.766" gradientTransform="rotate(27.964 537.109 -143.266)"><stop offset="0" style="stop-color:#ffe392"/><stop offset="1" style="stop-color:#ff8b88"/></linearGradient><path d="m167.9 87.5-2.7 5.2-6.9-3.7 2.7-5.2c1.2-2.3 3.7-3.4 6-3 1.7 1.8 2.1 4.4.9 6.7z" style="fill:url(#SVGID_25_)"/><linearGradient id="SVGID_26_" gradientUnits="userSpaceOnUse" x1="301.849" y1="220.542" x2="305.235" y2="257.85" gradientTransform="rotate(27.964 537.109 -143.266)"><stop offset="0" style="stop-color:#ffe392"/><stop offset="1" style="stop-color:#ff8b88"/></linearGradient><path d="m153.6 81.2.5 3.6-4 .5-.2-1.3c-.3-2 1.1-3.8 3.1-4h.2c.2.4.3.8.4 1.2z" style="fill:url(#SVGID_26_)"/><linearGradient id="SVGID_27_" gradientUnits="userSpaceOnUse" x1="306.89" y1="220.084" x2="310.276" y2="257.393" gradientTransform="rotate(27.964 537.109 -143.266)"><stop offset="0" style="stop-color:#ffe392"/><stop offset="1" style="stop-color:#ff8b88"/></linearGradient><path style="fill:url(#SVGID_27_)" d="m157.5 86.6-2.6.4 2.1-3.9z"/><linearGradient id="SVGID_28_" gradientUnits="userSpaceOnUse" x1="325.583" y1="218.388" x2="328.969" y2="255.696" gradientTransform="rotate(27.964 537.109 -143.266)"><stop offset="0" style="stop-color:#ffe392"/><stop offset="1" style="stop-color:#ff8b88"/></linearGradient><path d="m174 96.8-1.2.6-1.8-3.6 3.2-1.6c.4-.2.8-.3 1.3-.3l.1.1c.9 1.8.2 4-1.6 4.8z" style="fill:url(#SVGID_28_)"/><linearGradient id="SVGID_29_" gradientUnits="userSpaceOnUse" x1="354.318" y1="45.153" x2="354.496" y2="71.707" gradientTransform="rotate(53.978 187.014 -131.863)"><stop offset="0" style="stop-color:#2a1f31"/><stop offset="1" style="stop-color:#6a517f"/></linearGradient><path d="M131.6 115.3c-.5-.7-.4-1.6.3-2.1l4.5-3.7c.7-.6 1.7-.4 2.2.3l.4.6c.5.7.3 1.7-.4 2.2l-4.9 3.1c-.8.5-1.7.3-2.1-.4z" style="fill:url(#SVGID_29_)"/><linearGradient id="SVGID_30_" gradientUnits="userSpaceOnUse" x1="-428.903" y1="436.819" x2="-428.725" y2="463.374" gradientTransform="scale(-1 1) rotate(-1.948 -9497.98 -7771.104)"><stop offset="0" style="stop-color:#2a1f31"/><stop offset="1" style="stop-color:#6a517f"/></linearGradient><path d="M154.9 127.7c.8 0 1.5-.6 1.6-1.4l.6-5.8c.1-.9-.6-1.6-1.5-1.7h-.7c-.9 0-1.6.7-1.6 1.6l.2 5.8c-.1.8.6 1.5 1.4 1.5z" style="fill:url(#SVGID_30_)"/><circle cx="153.6" cy="102" r="19.5" style="fill:#41b883"/><circle cx="153.6" cy="102" r="15.6" style="fill:#b9fcdb"/><linearGradient id="SVGID_31_" gradientUnits="userSpaceOnUse" x1="313.241" y1="239.489" x2="314.002" y2="298.426" gradientTransform="rotate(27.964 537.109 -143.266)"><stop offset="0" style="stop-color:#fff"/><stop offset="1" style="stop-color:#ddc4ff"/></linearGradient><path d="M165.4 108.2c-3.4 6.5-11.5 9-18 5.5-6.5-3.4-9-11.5-5.5-18 3.4-6.5 11.5-9 18-5.5 6.4 3.5 8.9 11.5 5.5 18z" style="fill:url(#SVGID_31_)"/><linearGradient id="SVGID_32_" gradientUnits="userSpaceOnUse" x1="313.607" y1="255.322" x2="313.051" y2="250.125" gradientTransform="rotate(27.964 537.109 -143.266)"><stop offset="0" style="stop-color:#2a1f31"/><stop offset="1" style="stop-color:#6a517f"/></linearGradient><path d="M155 102.8c-.4.8-1.4 1.1-2.2.7s-1.1-1.4-.7-2.2c.4-.8 1.4-1.1 2.2-.7.9.4 1.2 1.4.7 2.2z" style="fill:url(#SVGID_32_)"/><linearGradient id="SVGID_33_" gradientUnits="userSpaceOnUse" x1="313.935" y1="253.644" x2="312.804" y2="243.07" gradientTransform="rotate(27.964 537.109 -143.266)"><stop offset="0" style="stop-color:#2a1f31"/><stop offset="1" style="stop-color:#6a517f"/></linearGradient><path style="fill:none;stroke:url(#SVGID_33_);stroke-linecap:round;stroke-linejoin:round;stroke-miterlimit:10" d="m153.6 102 4.5-8.6"/><linearGradient id="SVGID_34_" gradientUnits="userSpaceOnUse" x1="-344.591" y1="-425.467" x2="-345.261" y2="-431.732" gradientTransform="rotate(169.705 -119.442 -139.512)"><stop offset="0" style="stop-color:#2a1f31"/><stop offset="1" style="stop-color:#6a517f"/></linearGradient><path style="fill:none;stroke:url(#SVGID_34_);stroke-linecap:round;stroke-linejoin:round;stroke-miterlimit:10" d="m153.6 102 1 5.2"/><path class="st40" d="m160.5 89-1.3 2.4M140.6 95.1l2.4 1.3M146.7 115l1.3-2.4M166.6 108.9l-2.4-1.3"/></svg>