<svg version="1.1" id="Layer_1" xmlns="http://www.w3.org/2000/svg" x="0" y="0" viewBox="0 0 195.1 163.6" style="enable-background:new 0 0 195.1 163.6" xml:space="preserve"><style>.st9{opacity:.1;fill:#fff;enable-background:new}.st10{fill:#91e2bb}.st20{fill:none;stroke:#2a1f31;stroke-linecap:round;stroke-miterlimit:10}.st26{fill:#6cd8a4}</style><linearGradient id="SVGID_1_" gradientUnits="userSpaceOnUse" x1=".5" y1="108.9" x2="195.5" y2="108.9" gradientTransform="matrix(1 0 0 -1 0 166)"><stop offset="0" style="stop-color:#fff"/><stop offset="1" style="stop-color:#d8e0ff"/></linearGradient><path style="fill:url(#SVGID_1_)" d="M.5-.4h195v115H.5z"/><path d="M195.1 16.8v102.9c-12.6 14-30 17.9-48 17.1-3.6-.2-7.2-.5-10.8-1-1.6-.2-3.2-.5-4.8-.8-4.4-.8-8.7-1.7-13-2.8-1.3-.3-2.6-.7-3.9-1-2.8-.8-5.4-1.5-8.1-2.4-1.3-.4-2.6-.8-3.8-1.2-1-.3-2-.6-2.9-1-7.7-2.6-14.6-5.1-20-6.9-13.7-4.6-28.1-6.6-42.2-5.3-1.5.1-2.9.3-4.3.5-11.6 1.6-23 5.5-33.4 11.9v-110C0 7.9 7.2.7 16.1.7h163c8.8 0 16 7.2 16 16.1z" style="fill:none"/><linearGradient id="SVGID_2_" gradientUnits="userSpaceOnUse" x1="257.33" y1="251.501" x2="285.831" y2="85.105" gradientTransform="scale(1 -1) rotate(-28.118 -148.63 306.652)"><stop offset="0" style="stop-color:#fff"/><stop offset="1" style="stop-color:#d8e0ff"/></linearGradient><path d="M152.7 29.4c-11.5-6.1-18.9-16.9-21.3-28.7h-21.2c2.5 19.4 14.1 37.3 32.6 47.2 16.8 9 35.8 9.5 52.3 3.1V27.6c-12.3 8-28.5 9.2-42.4 1.8z" style="fill:url(#SVGID_2_)"/><linearGradient id="SVGID_3_" gradientUnits="userSpaceOnUse" x1="87.13" y1="107.126" x2="93.189" y2="56.869" gradientTransform="matrix(1 0 0 -1 0 166)"><stop offset="0" style="stop-color:#fff"/><stop offset="1" style="stop-color:#fff;stop-opacity:0"/></linearGradient><path d="M46.8 102.9c-.7-9.3 8.7-10.1 8.7-10.1S51.8 73.4 65.2 69c13.5-4.5 18.3 7.1 18.3 7.1s-2.3-8.6 3.4-10.7c5.7-2.1 9.6 5.4 9.6 5.4s-1-8 7.8-11 33 8 31.5 27.9-27.2 36.6-27.2 36.6" style="fill:url(#SVGID_3_)"/><linearGradient id="SVGID_4_" gradientUnits="userSpaceOnUse" x1="101.556" y1="26.096" x2="94.784" y2="87.047" gradientTransform="matrix(1 0 0 -1 0 166)"><stop offset="0" style="stop-color:#667aff"/><stop offset="1" style="stop-color:#8dcfff"/></linearGradient><path d="M195.1 80v39.7c-12.6 14-30 17.9-48 17.1-3.6-.2-7.2-.5-10.8-1-1.6-.2-3.2-.5-4.8-.8-4.4-.8-8.7-1.7-13-2.8-1.3-.3-2.6-.7-3.9-1-2.8-.8-5.4-1.5-8.1-2.4-1.3-.4-2.6-.8-3.8-1.2-1-.3-2-.6-2.9-1-7.7-2.6-14.6-5.1-20-6.9-13.7-4.6-28.1-6.6-42.2-5.3-1.5.1-2.9.3-4.3.5-11.6 1.6-23 5.5-33.4 11.9V95.5c10.1-3.7 24.4-4 36.3 3.1s25.3-6.7 38.1-1.4c12.8 5.4 22.2-8.6 42.6-1.3 20.5 7.4 28.6-7.4 43.8-3.2 11.9 3.3 23.8-11.1 34.4-12.7z" style="fill:url(#SVGID_4_)"/><linearGradient id="SVGID_5_" gradientUnits="userSpaceOnUse" x1="98.759" y1="46.786" x2="94.482" y2="94.549" gradientTransform="matrix(1 0 0 -1 0 166)"><stop offset="0" style="stop-color:#667aff"/><stop offset="1" style="stop-color:#8dcfff"/></linearGradient><path d="M195.1 83.5v36.2c-12.6 14-30 17.9-48 17.1-3.6-.2-7.2-.5-10.8-1-1.6-.2-3.2-.5-4.8-.8-4.4-.8-8.7-1.7-13-2.8-1.3-.3-2.6-.7-3.9-1-2.8-.8-5.4-1.5-8.1-2.4-1.3-.4-2.6-.8-3.8-1.2-1-.3-2-.6-2.9-1-7.7-2.6-14.6-5.1-20-6.9-13.7-4.6-28.1-6.6-42.2-5.3-1.5.1-2.9.3-4.3.5-11.6 1.6-23 5.5-33.4 11.9V99.1c10.1-3.7 24.4-4 36.3 3.1s25.3-6.7 38.1-1.4c12.8 5.4 22.2-8.6 42.6-1.3 20.5 7.4 28.6-7.4 43.8-3.2 11.9 3.3 23.8-11.2 34.4-12.8z" style="fill:url(#SVGID_5_)"/><linearGradient id="SVGID_6_" gradientUnits="userSpaceOnUse" x1="95.877" y1="31.814" x2="99.679" y2="79.814" gradientTransform="matrix(1 0 0 -1 0 166)"><stop offset="0" style="stop-color:#ffbfab"/><stop offset="1" style="stop-color:#ffd8cc"/></linearGradient><path d="M195.1 97v22.7c-12.6 14-30 17.9-48 17.1-3.6-.2-7.2-.5-10.8-1-1.6-.2-3.2-.5-4.8-.8-4.4-.8-8.7-1.7-13-2.8-1.3-.3-2.6-.7-3.9-1-2.8-.8-5.4-1.5-8.1-2.4-1.3-.4-2.6-.8-3.8-1.2-1-.3-2-.6-2.9-1-7.7-2.6-14.6-5.1-20-6.9-26.4-9-55.6-7.8-79.9 7.2v-19.2c17.4 1.5 43.4-4 68.9-1.3 29.6 3.1 63.5-6.3 85-5.1 13.3.7 30.2-2.1 41.3-4.3z" style="fill:url(#SVGID_6_)"/><linearGradient id="SVGID_7_" gradientUnits="userSpaceOnUse" x1="181.224" y1="43.318" x2="315.957" y2="36.902" gradientTransform="matrix(1 0 0 -1 0 166)"><stop offset="0" style="stop-color:#ffbfab"/><stop offset="1" style="stop-color:#ffd8cc"/></linearGradient><path d="M195.1 107.6v12.1c-12.6 14-30 17.9-48 17.1-3.6-.2-7.2-.5-10.8-1-1.6-.2-3.2-.5-4.8-.8-4.4-.8-8.7-1.7-13-2.8-1.3-.3-2.6-.7-3.9-1-2.8-.8-5.4-1.5-8.1-2.4-1.3-.4-2.6-.8-3.8-1.2-1-.3-2-.6-2.9-1-7.7-2.6-14.6-5.1-20-6.9-26.4-9-55.6-7.8-79.9 7.2v-10.4c12.2-.8 28.7-8.4 50.7-5.1 24.6 3.7 51.2 16.7 90.3 12.8 22.7-2.3 42-10.3 54.2-16.6z" style="fill:url(#SVGID_7_)"/><path d="M171.8 111.3c-.2 1-.4 1.6-.6 1.8-.2.1-1 .2-2.2.4-5 .5-16.4 1.1-17.5 1.6-.4.2-1 2.8-1.7 6.5-.3 1.5-.6 3.1-.9 4.8-.6 3.4-1.2 7.2-1.7 10.4-3.6-.2-7.2-.5-10.8-1-1.6-.2-3.2-.5-4.8-.8-4.4-.8-8.7-1.7-13-2.8-1.3-.3-2.6-.7-3.9-1-2.8-.8-5.4-1.5-8.1-2.4-1.3-.4-2.6-.8-3.8-1.2-1-.3-2-.6-2.9-1 .3-.5.6-1.1.9-1.7 3.8-6.8 8-17.9 8-17.9s-10.1 1.1-14.4.4c-1.1-.2-1.8-.5-1.9-.9-.2-.7-.1-1.6.1-2.7.5-2.5 1.7-5.8 1.1-8.9-.8-4.5-1.1-7.8 1-7.8h1.1c.2 0 .5 0 .7-.1h1.1c.2 0 .4 0 .6-.1h.5c.3 0 .7-.1 1.1-.1.6 0 1.2-.1 1.8-.2.8-.1 1.6-.1 2.5-.2.4 0 .8-.1 1.1-.1.8-.1 1.6-.1 2.4-.2 2.4-.2 5-.4 7.6-.6.3 0 .7-.1 1-.1l4.8-.3c1.6-.1 3.2-.2 4.6-.2h3c.9 0 1.7 0 2.4.1l7.6 1.9 2.8.4 4.4.6 4.9.7 3.1.4 3.1.4 4.3.6 3.9.5s.1 0 .4.1h.1c.1 0 .1.1.2.1.7.2 1.8.7 3 1.5.1.1.3.2.4.3.1.1.3.2.4.3.6.5 1.2 1.1 1.6 1.9.1.1.1.2.2.3 0 0 0 .1.1.1.1.1.1.3.2.4.1.2.2.4.3.7 1.1 3.5.6 11.5-.2 15.1z" style="fill:#41b883"/><path class="st9" d="M145.6 121c-7.8 0-14.1 6.3-14.1 14 1.6.3 3.2.5 4.8.8v-.7c0-5.1 4.2-9.3 9.3-9.3 1.1 0 2.3.2 3.3.6.3-1.7.6-3.3.9-4.8-1.3-.4-2.7-.6-4.2-.6zM120.7 85.1c-1.5.1-3.1.2-4.8.3-.3 0-.7 0-1 .1l.5.5c1.5 1.7 2.5 3.9 2.5 6.3 0 5.1-4.2 9.3-9.3 9.3-1.7 0-3.3-.5-4.6-1.2-.5-.3-1-.7-1.4-1-2-1.7-3.2-4.2-3.2-7 0-2.2.7-4.1 2-5.7-.6.1-1.3.1-1.8.2-.4 0-.8.1-1.1.1H98c-.2 0-.4 0-.6.1h-1.1c-.3 0-.5 0-.7.1-.7 1.6-1 3.4-1 5.2 0 3.9 1.6 7.4 4.1 10 .7.7 1.5 1.3 2.3 1.8 2.2 1.4 4.8 2.3 7.7 2.3 7.8 0 14.1-6.3 14.1-14.1-.1-2.8-.8-5.2-2.1-7.3zM165.7 90.6c-.3 2.6-2.2 4.6-4.6 5.2-.4.1-.9.2-1.3.2h-.1c-3.4 0-6.1-2.7-6.1-6.1 0-.3 0-.7.1-1l-3.1-.4c-.1.5-.1.9-.1 1.4 0 5.1 4.1 9.3 9.3 9.3.5 0 1 0 1.6-.1.1 0 .3-.1.4-.1 3.4-.8 6.2-3.4 7-6.9-1.2-.8-2.4-1.2-3.1-1.5zM111.9 116.5c-5.1 0-9.3 4.2-9.3 9.3 0 .6.1 1.3.2 1.9 1.3.4 2.5.8 3.8 1.2-.5-.9-.8-1.9-.8-3.1 0-3.4 2.7-6.1 6.1-6.1s6.1 2.7 6.1 6.1c0 2.4-1.3 4.4-3.3 5.4 1.3.4 2.6.7 3.9 1 1.6-1.7 2.6-3.9 2.6-6.4 0-5.1-4.2-9.3-9.3-9.3z"/><path class="st10" d="M107.5 88.5c-.4 8.6-5.1 17.4-13.2 19-1.1-.2-1.8-.5-1.9-.9-.7-2.3 2-7.1 1.2-11.7-.8-4.5-1.1-7.8 1-7.8.9 0 6.3-.5 12.8-1.1.1.8.1 1.6.1 2.5zM171.2 113.1c-.2.1-1 .2-2.2.4-4.6-4.3-9-15.8-7.9-23.6l3.9.5s5.3 1.2 6.9 5.7c1.5 4.5.2 16.4-.7 17zM145.6 87.8c-1.2 3.8-4.1 9-10.5 9.1-9.1.2-11.2-6-9.7-12.1 2.3-.1 4.1 0 5.4.1l7.6 1.9 7.2 1z"/><linearGradient id="SVGID_8_" gradientUnits="userSpaceOnUse" x1="138.481" y1="51.967" x2="142.045" y2="126.114" gradientTransform="matrix(1 0 0 -1 0 166)"><stop offset="0" style="stop-color:#2a1f31"/><stop offset="1" style="stop-color:#6a517f"/></linearGradient><path d="M159.2 59.6c-.4.8-1 1.7-1.4 2.5-.5.9-1.1 1.9-1.9 2.9-1.8 2.5-4.2 5.4-6.2 7.8-.7.9-1.4 1.7-1.9 2.4-2.7 3.4-5.6 6.3-8.6 3.7l-13.8-23.7c-1.6-2.8-2.5-6.4-2.6-9.9-.2-4.2.5-8.3 1.8-11.2 2.5 1.3 3.8 3.8 3.9 4.2-.1-.3-.8-3.9 0-6.5 3.1 2.5 33.7 5.8 28.8 21 4.1 1.8 3.4 4.2 1.9 6.8z" style="fill:url(#SVGID_8_)"/><linearGradient id="SVGID_9_" gradientUnits="userSpaceOnUse" x1="130.452" y1="48.655" x2="146.848" y2="149.527" gradientTransform="matrix(1 0 0 -1 0 166)"><stop offset="0" style="stop-color:#2a1f31"/><stop offset="1" style="stop-color:#6a517f"/></linearGradient><path d="M159.2 59.6c-.4.8-1 1.7-1.4 2.5-.5.9-1.1 1.9-1.9 2.9-1.8 2.5-4.2 5.4-6.2 7.8-.7.9-1.4 1.7-1.9 2.4-2.7 3.4-5.6 6.3-8.6 3.7l-13.8-23.7c-1.6-2.8-2.5-6.4-2.6-9.9 3 4.8 8.2 6.9 15.5 7.8 9.3 1.2 12.5-.2 15 4.2 1.1 2 3.6 2.7 5.9 2.3z" style="fill:url(#SVGID_9_)"/><linearGradient id="SVGID_10_" gradientUnits="userSpaceOnUse" x1="149.764" y1="111.056" x2="119.044" y2="48.809" gradientTransform="matrix(1 0 0 -1 0 166)"><stop offset="0" style="stop-color:#ff7570"/><stop offset="1" style="stop-color:#fbb"/></linearGradient><path d="M128.9 79.9c-.3 5.7-1.3 9.4-1.3 9.4s1.6 4.2 6.9 4.1c5.3-.1 6.7-3.8 6.7-3.8s.4-11.4 1.6-15l-13.9 5.3z" style="fill:url(#SVGID_10_)"/><linearGradient id="SVGID_11_" gradientUnits="userSpaceOnUse" x1="171.681" y1="172.371" x2="131.051" y2="90.041" gradientTransform="matrix(1 0 0 -1 0 166)"><stop offset="0" style="stop-color:#ff7570"/><stop offset="1" style="stop-color:#fbb"/></linearGradient><path d="M151.5 68.8c-.4 3.3-2.7 5.9-5 5.4-5.3 9.1-12.5 9.3-16.2 8.6-2.7-.6-5.1-3-6.5-6.3-.5-1.3-.9-2.6-1.1-4.1-.3-2.3-.2-5.1.1-7.9.4-4 1.2-8.1 1.8-10.8 8.3 6.3 23.9 6.7 23.9 6.7s-1.1 1.3-1.8 3.1c-.6 1.8-.5 7.2-.5 7.2s.4-1.4 1.4-2.3 4.3-2.9 3.9.4z" style="fill:url(#SVGID_11_)"/><linearGradient id="SVGID_12_" gradientUnits="userSpaceOnUse" x1="163.428" y1="129.641" x2="82.873" y2="61.443" gradientTransform="matrix(1 0 0 -1 0 166)"><stop offset="0" style="stop-color:#ff7570"/><stop offset="1" style="stop-color:#fbb"/></linearGradient><path d="M123.8 76.4c-4.3 5.1-15.4 17.9-22.6 24.1-3 2.5-6.9 3.8-10.7 3.2-5.9-.9-6.2-5.5-5.2-10.8 0-.1 0-.2.1-.3 2-6.2 28.6-22.7 35.9-27.1.8-.5 1.3-.8 1.6-1-.3 2.8-.4 5.6-.1 7.9.1 1.4.5 2.8 1 4z" style="fill:url(#SVGID_12_)"/><linearGradient id="SVGID_13_" gradientUnits="userSpaceOnUse" x1="125.039" y1="134.612" x2="174.465" y2="61.899" gradientTransform="matrix(1 0 0 -1 0 166)"><stop offset="0" style="stop-color:#ff7570"/><stop offset="1" style="stop-color:#fbb"/></linearGradient><path d="M182.2 103.2c-.7 5.4-2.4 9.6-8.3 8.7-3.9-.6-7.1-3.1-9.2-6.4-.4-.6-.7-1.2-1.1-1.9-4.5-8.2-10.9-23.5-13.8-30.7 2-2.4 4.4-5.3 6.2-7.8 1.5 1.7 5.1 5.9 9.2 11.1 7.8 9.8 17.6 22.9 17 27z" style="fill:url(#SVGID_13_)"/><path d="M131.4 65.5c-.9 2.2-2.5 4.7-2.3 5.7.3 1 2.9 1 2.9 1" style="fill:none;stroke:#ff7570;stroke-linecap:round;stroke-linejoin:round;stroke-miterlimit:10"/><linearGradient id="SVGID_14_" gradientUnits="userSpaceOnUse" x1="160.792" y1="97.374" x2="160.347" y2="82.314" gradientTransform="scale(1 -1) rotate(-5.164 -1631.93 265.662)"><stop offset="0" style="stop-color:#2a1f31"/><stop offset="1" style="stop-color:#6a517f"/></linearGradient><path d="M139.1 67.3c-.1 1-.7 1.7-1.4 1.6s-1.1-.9-1-1.9.7-1.7 1.4-1.6c.6.1 1.1.9 1 1.9z" style="fill:url(#SVGID_14_)"/><linearGradient id="SVGID_15_" gradientUnits="userSpaceOnUse" x1="149.474" y1="98.118" x2="149.029" y2="83.057" gradientTransform="scale(1 -1) rotate(-5.164 -1631.93 265.662)"><stop offset="0" style="stop-color:#2a1f31"/><stop offset="1" style="stop-color:#6a517f"/></linearGradient><path d="M127.9 65.5c-.1 1-.7 1.7-1.4 1.6-.7-.1-1.1-.9-1-1.9s.7-1.7 1.4-1.6c.6.1 1.1.9 1 1.9z" style="fill:url(#SVGID_15_)"/><path class="st20" d="M125.4 61.6s1.9-1 3.4.5M137.1 63.1s2.1-.7 3.3 1"/><path d="M130.5 77.1c1.8 1.8 4.7 1.2 5.3 0" style="fill:none;stroke:#f94848;stroke-linecap:round;stroke-linejoin:round;stroke-miterlimit:10"/><linearGradient id="SVGID_16_" gradientUnits="userSpaceOnUse" x1="194.042" y1="34.157" x2="142.537" y2="107.583" gradientTransform="matrix(1 0 0 -1 0 166)"><stop offset="0" style="stop-color:#ffbfab"/><stop offset="1" style="stop-color:#ff8b88"/></linearGradient><path d="M182.2 103.2c-.7 5.4-2.4 9.6-8.3 8.7-3.9-.6-7.1-3.1-9.2-6.4-.4-.6-.7-1.2-1.1-1.9.9-.2 2.4.8 4.3 2.8 3.2 3.2 8.3 4.3 10 .6 1.8-3.7 2.5-6.9-2.4-13.5-4.9-6.5-11.4-13.7-10.5-17.4 8 9.9 17.8 23 17.2 27.1z" style="fill:url(#SVGID_16_)"/><linearGradient id="SVGID_17_" gradientUnits="userSpaceOnUse" x1="79.181" y1="109.315" x2="120.171" y2="66.899" gradientTransform="matrix(1 0 0 -1 0 166)"><stop offset="0" style="stop-color:#ffbfab"/><stop offset="1" style="stop-color:#ff8b88"/></linearGradient><path d="M123.8 76.4c-4.3 5.1-15.4 17.9-22.6 24.1-3 2.5-6.9 3.8-10.7 3.2-5.9-.9-6.2-5.5-5.2-10.8 0-.1 0-.2.1-.3-.7 4.8.9 8.6 10.1 8.2 11.6-.5 25.7-25.1 25.8-29.6 0-1.7.1-3.8.1-5.8.8-.5 1.3-.8 1.6-1-.3 2.8-.4 5.6-.1 7.9 0 1.5.4 2.9.9 4.1z" style="fill:url(#SVGID_17_)"/><linearGradient id="SVGID_18_" gradientUnits="userSpaceOnUse" x1="12.257" y1="84.626" x2="39.073" y2="52.646" gradientTransform="matrix(1 0 0 -1 0 166)"><stop offset="0" style="stop-color:#2a1f31"/><stop offset="1" style="stop-color:#6a517f"/></linearGradient><path d="M37.8 114.5c-1.5.1-2.9.3-4.3.5L13.3 80.5l3.5-2 21 36z" style="fill:url(#SVGID_18_)"/><linearGradient id="SVGID_19_" gradientUnits="userSpaceOnUse" x1="88.015" y1="-48.1" x2="6.799" y2="141.631" gradientTransform="matrix(1 0 0 -1 0 166)"><stop offset="0" style="stop-color:#ff227d"/><stop offset="1" style="stop-color:#ff967d"/></linearGradient><path d="m68.8 73.5-9.6 4.9L44.8 86l-18.1 9.3-.1.1-3.5 1.8-9.3 4.8L0 109.2V57.5l68.2 12c2 .4 2.4 3.1.6 4z" style="fill:url(#SVGID_19_)"/><path class="st26" d="M59.2 78.5 44.8 86 0 58.7V58zM26.8 95.3l-.2.1-3.5 1.8-9.3 4.8L0 64.4v-3.9l14.7 19.2L26 94.3z"/><linearGradient id="SVGID_20_" gradientUnits="userSpaceOnUse" x1="88.537" y1="59.238" x2="88.537" y2="42.307" gradientTransform="matrix(1 0 0 -1 0 166)"><stop offset="0" style="stop-color:#ff6d79"/><stop offset="1" style="stop-color:#ff8b88"/></linearGradient><path d="M88.4 113.6c-1.3-.2-2.9-.3-2.6.3.3.6 1.3 1.7 1.3 1.7s-2.7 1.4-2.3 1.9c.5.5 3.6-.5 3.6-.5s1.5 2.8 1.7 1.9c.2-.8.1-2.4.1-2.4s2-1 2.1-1.3c.2-.3-1.9-.7-1.9-.7s-.1-1.5-.3-1.5c-.3-.1-1.7.6-1.7.6z" style="fill:url(#SVGID_20_)"/><linearGradient id="SVGID_21_" gradientUnits="userSpaceOnUse" x1="65.97" y1="118.366" x2="65.97" y2="101.434" gradientTransform="scale(1 -1) rotate(29.77 558.192 206.16)"><stop offset="0" style="stop-color:#ff6d79"/><stop offset="1" style="stop-color:#ff8b88"/></linearGradient><path d="M177.8 120.4c-1.2.5-2.7 1.2-2.1 1.6.6.4 1.9.8 1.9.8s-1.7 2.6-1 2.8c.7.2 2.8-2.2 2.8-2.2s2.7 1.6 2.5.8c-.3-.8-1.1-2.1-1.1-2.1s1.2-1.8 1.2-2.2c0-.3-2 .3-2 .3s-.8-1.2-1-1.2c-.3.1-1.2 1.4-1.2 1.4z" style="fill:url(#SVGID_21_)"/></svg>